<?xml version="1.0" encoding="UTF-8"?>
<svg width="924px" height="676px" viewBox="0 0 924 676" version="1.1" xmlns="http://www.w3.org/2000/svg" xmlns:xlink="http://www.w3.org/1999/xlink">
    <title>Group</title>
    <g id="coba-coba" stroke="none" stroke-width="1" fill="none" fill-rule="evenodd">
        <g id="Group">
            <rect id="Rectangle" x="5.68434189e-14" y="0" width="923.07" height="676"></rect>
            <g id="on-boarding---scan" transform="translate(0.000000, 39.956574)">
                <path d="M923.065391,241.737274 C923.065391,243.068827 923.065391,244.401378 923.065391,245.732931 C869.569391,237.679684 815.902391,230.854102 762.065391,225.255187 C748.547391,222.818835 735.047391,220.654188 721.565391,218.762244 C709.818391,253.425571 704.985391,289.053849 707.065391,325.64608 C741.689391,330.968295 776.356391,336.129686 811.065391,341.129252 C848.451391,345.168862 885.785391,349.663976 923.065391,354.614596 C923.065391,356.279786 923.065391,357.943978 923.065391,359.609168 C850.623391,351.007516 778.289391,341.51783 706.065391,331.140109 C703.650391,329.676699 702.650391,327.512052 703.065391,324.647165 C687.516391,323.261671 672.183391,320.598565 657.065391,316.655851 C647.020391,321.996047 636.353391,325.492247 625.065391,327.144451 C605.416391,328.871574 585.749391,330.369946 566.065391,331.639566 C563.476391,331.612595 560.976391,331.278958 558.565391,330.640651 C551.333391,334.688252 543.500391,336.8529 535.065391,337.133595 C525.065391,337.799871 515.065391,337.799871 505.065391,337.133595 C496.891391,332.266884 494.058391,325.107665 496.565391,315.656936 C499.398391,310.162907 503.565391,306.000431 509.065391,303.170507 C501.300391,302.884817 493.633391,301.885903 486.065391,300.173764 C483.565391,299.008031 481.732391,297.177021 480.565391,294.679735 C478.500391,282.997431 482.333391,273.840383 492.065391,267.20959 C473.867391,269.009634 465.700391,260.8515 467.565391,242.736188 C468.330391,240.043115 469.497391,237.545829 471.065391,235.244331 C459.986391,236.618837 449.319391,234.954645 439.065391,230.249759 C433.384391,224.132407 432.551391,217.305827 436.565391,209.772015 C446.085391,201.548952 457.252391,197.553294 470.065391,197.785042 C456.587391,156.230205 443.420391,114.608441 430.565391,72.9207479 C424.383391,52.8016139 431.216391,39.6499075 451.065391,33.4636309 C480.357391,23.9319901 509.357391,13.6102081 538.065391,2.49728589 C542.232391,1.66519023 546.398391,0.832095658 550.565391,5.67817071e-14 C561.739391,1.90393076 569.739391,7.89741689 574.565391,17.9804584 C585.310391,46.6003536 594.977391,75.5688699 603.565391,104.886007 C610.176391,121.090396 616.509391,137.405664 622.565391,153.832811 C635.975391,163.20962 647.975391,174.197678 658.565391,186.796984 C662.743391,194.311817 666.243391,202.136313 669.065391,210.271472 C685.031391,213.76068 701.031391,216.924241 717.065391,219.761158 C717.628391,216.890278 718.628391,214.227173 720.065391,211.769843 C747.345391,215.587694 774.678391,219.083894 802.065391,222.258444 C835.223391,228.222962 868.556391,232.884895 902.065391,236.243245 C909.335391,237.259141 916.335391,239.090151 923.065391,241.737274 Z M581.065391,57.9370326 C579.604391,56.0870432 578.604391,53.9233947 578.065391,51.4440893 C577.232391,49.9457177 576.065391,48.7799847 574.565391,47.947889 C548.695391,56.6734059 522.861391,65.1641779 497.065391,73.4202051 C498.778391,72.0437011 500.112391,70.3785109 501.065391,68.4256333 C505.305391,68.9550579 507.639391,67.1240479 508.065391,62.9316044 C508.732391,62.5989659 509.398391,62.2653285 510.065391,61.93269 C512.467391,63.4800083 515.133391,64.1462842 518.065391,63.9305187 C517.063391,57.7322551 514.063391,52.5718636 509.065391,48.4473462 C507.772391,47.9578782 506.438391,47.7910595 505.065391,47.947889 C504.450391,52.9684326 503.616391,57.9630044 502.565391,62.9316044 C498.263391,63.2172939 494.930391,65.2151226 492.565391,68.9250905 C491.251391,67.158011 490.418391,65.1601823 490.065391,62.9316044 C491.866391,58.865024 493.532391,54.8693666 495.065391,50.9446321 C488.326391,51.3791598 484.993391,55.0421788 485.065391,61.93269 C484.042391,70.3934946 487.708391,74.5549718 496.065391,74.4191194 C489.808391,76.8904336 483.475391,79.055081 477.065391,80.9120627 C479.669391,78.8143426 482.169391,76.4838754 484.565391,73.9196623 C485.777391,70.5892818 484.944391,68.0919959 482.065391,66.4278046 C478.805391,65.6446557 475.638391,65.8114744 472.565391,66.9272618 C472.327391,63.7726902 473.827391,61.7748615 477.065391,60.9337756 C477.994391,59.7460665 478.327391,58.4145136 478.065391,56.9381182 C469.256391,57.3636557 466.256391,61.8587703 469.065391,70.423462 C471.767391,71.029803 474.433391,70.8629843 477.065391,69.9240048 C478.302391,69.979944 479.302391,70.4794012 480.065391,71.4223764 C477.173391,73.9766004 474.006391,76.1412478 470.565391,77.9153197 C470.075391,79.2069159 469.908391,80.5394677 470.065391,81.9109771 C471.764391,81.7511508 473.431391,81.9169706 475.065391,82.4104343 C466.528391,85.4191643 458.195391,88.9153646 450.065391,92.899035 C449.732391,93.8979494 449.398391,94.8968637 449.065391,95.8957781 C453.878391,115.318669 460.212391,133.965403 468.065391,151.834982 C468.065391,154.831725 468.065391,157.828468 468.065391,160.825211 C459.915391,137.625425 451.749391,114.317757 443.565391,90.9012063 C442.057391,83.8748427 440.390391,76.8824422 438.565391,69.9240048 C436.286391,60.7699537 438.786391,53.278096 446.065391,47.4484319 C454.940391,42.2660642 464.107391,37.7709496 473.565391,33.9630881 C474.396391,37.4732731 475.896391,40.6368349 478.065391,43.4527744 C481.732391,44.1190503 485.398391,44.1190503 489.065391,43.4527744 C500.408391,40.4210694 511.242391,36.2585933 521.565391,30.966345 C522.656391,25.9468004 521.822391,21.285866 519.065391,16.981544 C527.567391,13.2066467 536.400391,10.543541 545.565391,8.99022919 C553.928391,10.5565269 561.261391,14.2195458 567.565391,19.9782871 C573.466391,32.1071052 577.966391,44.7603533 581.065391,57.9370326 Z M453.065391,37.9587455 C449.297391,40.6807871 445.297391,43.178073 441.065391,45.4506031 C438.292391,47.8310161 436.126391,50.6619393 434.565391,53.9413752 C435.149391,49.9487145 436.982391,46.4525142 440.065391,43.4527744 C444.033391,40.7447176 448.367391,38.9137076 453.065391,37.9587455 Z M592.065391,90.9012063 C596.509391,102.968092 600.509391,115.287702 604.065391,127.861037 C603.098391,126.556455 601.764391,125.890179 600.065391,125.863209 C600.964391,134.451874 602.964391,142.775828 606.065391,150.836068 C599.120391,149.46256 592.120391,148.296827 585.065391,147.339867 C581.120391,136.571571 573.786391,129.412351 563.065391,125.863209 C560.655391,115.378604 556.822391,105.38946 551.565391,95.8957781 C546.684391,87.8455273 540.684391,86.8466129 533.565391,92.899035 C527.731391,103.225812 521.398391,113.214955 514.565391,122.866466 C497.135391,121.891525 480.801391,125.887183 465.565391,134.853438 C460.662391,122.157236 456.162391,109.33717 452.065391,96.3952352 C492.037391,79.0990332 533.037391,64.614775 575.065391,52.9424608 C582.924391,75.6647656 590.091391,98.6397958 596.565391,121.867551 C597.576391,122.703643 598.743391,123.036281 600.065391,122.866466 C597.398391,112.211046 594.732391,101.556626 592.065391,90.9012063 Z M586.065391,72.9207479 C588.705391,77.5007702 590.371391,82.495342 591.065391,87.9044632 C588.592391,83.2695006 586.925391,78.2749289 586.065391,72.9207479 Z M546.065391,99.8914355 C543.343391,97.6209032 540.343391,97.2872658 537.065391,98.8925211 C540.578391,91.0050934 543.578391,91.3377319 546.065391,99.8914355 Z M547.065391,100.89035 C550.500391,106.98173 553.667391,113.307854 556.565391,119.869723 C557.059391,121.501949 557.225391,123.167139 557.065391,124.864294 C556.398391,124.531656 555.732391,124.198018 555.065391,123.86538 C555.048391,121.802622 554.715391,119.804793 554.065391,117.871894 C551.452391,112.318929 549.118391,106.65908 547.065391,100.89035 Z M604.065391,127.861037 C607.527391,135.728487 610.527391,143.88662 613.065391,152.334439 C612.732391,152.833896 612.398391,153.333353 612.065391,153.832811 C608.780391,145.370008 606.114391,136.713416 604.065391,127.861037 Z M571.065391,143.843667 C571.929391,145.030377 572.929391,146.19611 574.065391,147.339867 C573.117391,147.822343 572.117391,147.988163 571.065391,147.839325 C571.065391,146.507772 571.065391,145.17522 571.065391,143.843667 Z M468.065391,160.825211 C468.398391,160.825211 468.732391,160.825211 469.065391,160.825211 C468.893391,161.816134 469.227391,162.481411 470.065391,162.82304 C470.065391,163.489316 470.398391,163.821954 471.065391,163.821954 C471.398391,164.820869 472.065391,165.487144 473.065391,165.819783 C473.230391,171.308817 474.230391,176.636028 476.065391,181.802413 C476.715391,183.735312 477.048391,185.733141 477.065391,187.795899 C473.892391,178.95251 470.892391,169.962281 468.065391,160.825211 Z M478.065391,190.792642 C478.732391,191.12528 479.398391,191.458918 480.065391,191.791556 C483.150391,203.464869 487.150391,214.785566 492.065391,225.754644 C491.240391,226.639682 490.240391,226.972321 489.065391,226.753559 C485.704391,214.651711 482.037391,202.664739 478.065391,190.792642 Z M562.065391,228.751387 C568.806391,223.970583 573.639391,217.644459 576.565391,209.772015 C576.862391,214.957379 577.362391,220.117771 578.065391,225.255187 C577.732391,226.087283 577.398391,226.920377 577.065391,227.752473 C571.963391,226.393949 566.963391,226.727587 562.065391,228.751387 Z M533.065391,222.757901 C533.065391,223.424177 533.065391,224.089454 533.065391,224.75573 C532.398391,224.75573 531.732391,224.75573 531.065391,224.75573 C531.398391,223.756816 532.065391,223.09054 533.065391,222.757901 Z M561.065391,229.750302 C557.775391,235.423136 557.275391,241.416622 559.565391,247.73076 C562.937391,250.496754 566.770391,252.327764 571.065391,253.224789 C561.424391,256.21454 551.758391,259.044464 542.065391,261.715561 C553.494391,254.082856 555.161391,244.59317 547.065391,233.246502 C552.091391,233.210541 556.757391,232.044808 561.065391,229.750302 Z M570.065391,230.749216 C578.947391,235.92559 578.947391,241.2528 570.065391,246.731846 C564.315391,245.239468 562.149391,241.576449 563.565391,235.743788 C565.530391,233.696013 567.697391,232.030823 570.065391,230.749216 Z M581.065391,243.735103 C582.290391,245.170543 583.290391,246.835733 584.065391,248.729674 C581.637391,250.498752 578.970391,251.330847 576.065391,251.22696 C578.765391,249.371976 580.431391,246.87469 581.065391,243.735103 Z M542.065391,261.715561 C541.413391,262.939231 540.246391,263.605507 538.565391,263.71339 C537.398391,263.546571 536.232391,263.380751 535.065391,263.213933 C537.431391,262.77441 539.764391,262.274953 542.065391,261.715561 Z" id="Shape" fill="#060404" opacity="0.812"></path>
                <path d="M524.065391,55.9392039 C524.558391,58.2427004 524.891391,60.5731676 525.065391,62.9316044 C523.398391,62.9316044 521.732391,62.9316044 520.065391,62.9316044 C517.457391,56.4476513 515.457391,49.7878893 514.065391,42.9533173 C519.009391,45.5235239 524.009391,48.1866296 529.065391,50.9446321 C527.858391,46.6632852 526.858391,42.3339904 526.065391,37.9587455 C527.709391,37.7449778 529.209391,38.0786152 530.565391,38.9576598 C533.407391,45.4655869 535.407391,52.1253489 536.565391,58.9359469 C532.204391,59.3744703 528.038391,58.375556 524.065391,55.9392039 Z" id="Path" fill="#000000" opacity="0.656"></path>
                <path d="M546.065391,99.8914355 C546.065391,100.557711 546.398391,100.89035 547.065391,100.89035 C549.118391,106.65908 551.452391,112.318929 554.065391,117.871894 C553.716391,120.981514 553.716391,124.310896 554.065391,127.861037 C553.073391,129.385381 551.573391,130.051657 549.565391,129.858866 C542.082391,129.149637 534.582391,128.65018 527.065391,128.360495 C525.942391,127.317628 524.609391,126.652351 523.065391,126.362666 C521.742391,125.547552 521.076391,124.381819 521.065391,122.866466 C525.310391,115.291698 529.977391,107.96566 535.065391,100.89035 C535.732391,100.89035 536.065391,100.557711 536.065391,99.8914355 C536.732391,99.8914355 537.065391,99.558797 537.065391,98.8925211 C540.343391,97.2872658 543.343391,97.6209032 546.065391,99.8914355 Z" id="Path" fill="#FE7CD0" opacity="0.949"></path>
                <path d="M320.065391,120.868637 C326.149391,120.127442 331.649391,121.459994 336.565391,124.864294 C344.295391,144.777652 347.295391,165.422215 345.565391,186.796984 C364.784391,197.676161 377.784391,213.65879 384.565391,234.744873 C386.901391,243.751085 389.234391,252.741314 391.565391,261.715561 C398.272391,259.814627 404.772391,257.317341 411.065391,254.223703 C420.056391,252.215885 423.056391,255.545267 420.065391,264.212847 C411.084391,267.979753 401.918391,271.143315 392.565391,273.702533 C392.482391,282.460015 391.649391,291.116607 390.065391,299.674306 C398.356391,301.564252 406.690391,303.395262 415.065391,305.168335 C417.391391,310.218846 415.891391,313.04977 410.565391,313.659107 C403.915391,312.567294 397.249391,311.56838 390.565391,310.662364 C389.398391,310.995003 388.232391,311.32864 387.065391,311.661279 C385.687391,315.959607 384.021391,320.122083 382.065391,324.147708 C390.282391,328.836612 398.448391,333.664365 406.565391,338.631966 C407.619391,346.516397 404.452391,348.681045 397.065391,345.12491 C391.398391,341.461891 385.732391,337.799871 380.065391,334.136852 C379.082391,333.546493 378.415391,333.880131 378.065391,335.135766 C379.183391,344.099025 381.016391,352.922435 383.565391,361.606996 C398.216391,394.215557 411.216391,427.513368 422.565391,461.498432 C430.359391,486.715026 432.359391,512.354161 428.565391,538.414837 C417.395391,582.529892 389.228391,608.334846 344.065391,615.8307 C332.009391,617.338062 320.009391,619.17007 308.065391,621.324729 C306.671391,621.20386 305.337391,620.871222 304.065391,620.325814 C300.546391,623.676173 296.879391,626.838736 293.065391,629.815501 C287.992391,632.225881 282.659391,633.724253 277.065391,634.310615 C269.564391,633.269747 262.231391,631.604556 255.065391,629.316044 C230.784391,632.537542 206.450391,632.703362 182.065391,629.815501 C178.344391,629.1722 174.678391,628.340104 171.065391,627.318215 C147.855391,641.988271 128.189391,638.159432 112.065391,615.8307 C101.506391,617.480906 90.8393913,618.646639 80.0653913,619.3269 C58.7233913,619.475738 40.0563913,612.650156 24.0653913,598.849156 C17.1893913,592.68086 10.6893913,586.187916 4.56539131,579.370326 C-4.69790869,558.763722 0.135391312,542.447455 19.0653913,530.423522 C20.2303913,520.464346 21.0633913,510.475203 21.5653913,500.456092 C24.8953913,483.819173 30.2283913,467.836544 37.5653913,452.508203 C49.1733913,426.98694 60.5063913,401.347805 71.5653913,375.591797 C75.7923913,361.57603 78.2923913,347.258591 79.0653913,332.63848 C70.1243913,335.170728 61.1243913,337.502194 52.0653913,339.630881 C47.5783913,339.3372 46.0783913,337.006733 47.5653913,332.63848 C48.0653913,332.139023 48.5653913,331.639566 49.0653913,331.140109 C59.3813913,328.371118 69.5473913,325.207556 79.5653913,321.650422 C80.2323913,320.651508 80.2323913,319.652594 79.5653913,318.653679 C76.4823913,314.757913 74.1493913,310.428618 72.5653913,305.667793 C60.8223913,307.747532 48.9893913,309.412723 37.0653913,310.662364 C37.0653913,308.331897 37.0653913,306.000431 37.0653913,303.669964 C47.9933913,302.87283 58.6593913,300.875002 69.0653913,297.676478 C66.5403913,289.865966 64.8733913,281.874652 64.0653913,273.702533 C56.4963913,272.894412 49.3303913,270.896583 42.5653913,267.709047 C41.4923913,264.11795 42.8263913,262.120121 46.5653913,261.715561 C52.0803913,263.300838 57.5803913,264.966028 63.0653913,266.710133 C63.8033913,237.602767 74.6363913,212.962547 95.5653913,192.79047 C93.0883913,169.048274 97.7553913,146.738521 109.565391,125.863209 C114.057391,122.196194 119.224391,121.030461 125.065391,122.367008 C130.393391,123.528746 135.393391,125.526575 140.065391,128.360495 C150.749391,136.363796 159.249391,146.18712 165.565391,157.828468 C203.625391,148.894178 241.791391,148.56154 280.065391,156.829554 C290.007391,140.89687 303.340391,128.909898 320.065391,120.868637 Z M331.065391,176.807841 C330.280391,166.864647 329.780391,156.875504 329.565391,146.84041 C328.902391,142.351289 327.402391,138.188813 325.065391,134.353981 C323.158391,133.233199 321.158391,132.401103 319.065391,131.856695 C321.820391,129.215565 324.987391,128.216651 328.565391,128.859952 C331.408391,139.12979 332.908391,149.618391 333.065391,160.325754 C332.719391,166.00658 332.052391,171.500609 331.065391,176.807841 Z M171.065391,167.817612 C167.586391,168.313073 164.252391,169.311988 161.065391,170.814355 C159.379391,169.458828 157.713391,168.127275 156.065391,166.818697 C153.036391,163.463344 150.036391,160.133962 147.065391,156.829554 C144.779391,151.888923 141.445391,147.893266 137.065391,144.842581 C135.732391,142.844753 134.065391,141.179563 132.065391,139.84801 C129.510391,137.128965 126.510391,136.462689 123.065391,137.850181 C119.136391,138.78017 116.470391,141.110637 115.065391,144.842581 C114.732391,147.506686 114.398391,150.169792 114.065391,152.833896 C112.154391,163.122714 111.821391,173.444496 113.065391,183.800241 C113.065391,184.466517 113.065391,185.131794 113.065391,185.79807 C112.827391,187.700003 111.827391,189.032555 110.065391,189.793727 C109.446391,182.302869 108.780391,174.811011 108.065391,167.318154 C108.356391,154.134483 111.689391,141.814872 118.065391,130.35816 C124.374391,130.337346 130.041391,132.335175 135.065391,136.351809 C145.859391,144.799628 154.859391,154.788772 162.065391,166.31924 C165.260391,166.500044 168.260391,166.999501 171.065391,167.817612 Z M300.065391,146.84041 C298.398391,150.169792 296.732391,153.500172 295.065391,156.829554 C292.380391,159.516633 290.047391,162.513376 288.065391,165.819783 C287.732391,165.819783 287.398391,165.819783 287.065391,165.819783 C290.166391,158.61761 294.499391,152.291486 300.065391,146.84041 Z M241.065391,162.82304 C236.732391,162.82304 232.398391,162.82304 228.065391,162.82304 C231.022391,161.798154 234.189391,161.131878 237.565391,160.825211 C239.246391,160.933094 240.413391,161.59937 241.065391,162.82304 Z M286.065391,166.818697 C284.414391,168.287101 282.580391,169.618654 280.565391,170.814355 C276.109391,169.004322 271.609391,167.339132 267.065391,165.819783 C267.185391,164.734962 267.852391,164.068686 269.065391,163.821954 C274.717391,164.984691 280.383391,165.983605 286.065391,166.818697 Z M331.065391,189.793727 C362.774391,205.077117 378.774391,230.049976 379.065391,264.712304 C376.023391,244.078729 367.357391,226.264091 353.065391,211.270386 C345.565391,205.110081 338.065391,198.950775 330.565391,192.79047 C329.825391,191.542826 329.992391,190.543912 331.065391,189.793727 Z M381.065391,293.68082 C381.208391,295.440907 380.874391,297.106098 380.065391,298.675392 C379.140391,299.736239 378.140391,299.736239 377.065391,298.675392 C378.429391,296.986228 379.762391,295.321038 381.065391,293.68082 Z M91.0653913,333.637395 C87.4313913,347.834964 83.4313913,361.819765 79.0653913,375.591797 C82.6373913,361.172469 84.8043913,346.521392 85.5653913,331.639566 C85.8733913,330.832443 86.3733913,330.166167 87.0653913,329.641737 C88.4053913,331.007253 89.7383913,332.338806 91.0653913,333.637395 Z M377.065391,366.601568 C373.506391,361.03362 369.506391,355.706409 365.065391,350.618939 C367.780391,348.219546 370.280391,345.556441 372.565391,342.627624 C372.977391,350.842695 374.477391,358.83401 377.065391,366.601568 Z M78.0653913,379.587455 C76.7493913,386.697727 74.9163913,393.690128 72.5653913,400.564656 C70.6193913,403.481486 68.4523913,406.145591 66.0653913,408.555971 C70.3813913,398.946415 74.3813913,389.28991 78.0653913,379.587455 Z M391.065391,402.562485 C393.475391,407.932649 395.808391,413.426678 398.065391,419.044572 C397.117391,419.527048 396.117391,419.692867 395.065391,419.544029 C392.031391,414.15089 390.698391,408.491042 391.065391,402.562485 Z M54.0653913,434.527744 C53.7273913,436.879189 53.2273913,439.209656 52.5653913,441.520145 C52.1433913,443.444054 50.9763913,444.442968 49.0653913,444.516888 C50.2223913,440.873847 51.8883913,437.544466 54.0653913,434.527744 Z M402.065391,443.517974 C403.853391,443.233283 405.520391,443.565921 407.065391,444.516888 C409.065391,450.177736 411.065391,455.837584 413.065391,461.498432 C411.520391,462.449398 409.853391,462.782037 408.065391,462.497346 C406.059391,456.155239 404.059391,449.829114 402.065391,443.517974 Z M40.0653913,470.488661 C38.9893913,478.19129 37.6563913,485.849966 36.0653913,493.463691 C34.0653913,493.463691 32.0653913,493.463691 30.0653913,493.463691 C32.2003913,485.734092 34.5333913,478.076415 37.0653913,470.488661 C38.0653913,470.488661 39.0653913,470.488661 40.0653913,470.488661 Z M417.065391,490.466948 C418.065391,490.466948 419.065391,490.466948 420.065391,490.466948 C421.559391,499.071597 422.059391,507.728188 421.565391,516.438721 C420.857391,515.558678 420.023391,514.893401 419.065391,514.440893 C418.218391,506.467558 417.551391,498.476244 417.065391,490.466948 Z M34.0653913,512.443064 C33.3983913,518.769189 32.7323913,525.096312 32.0653913,531.422437 C29.3253913,525.844499 27.9923913,519.851013 28.0653913,513.441978 C30.1863913,513.616788 32.1863913,513.283151 34.0653913,512.443064 Z M415.065391,536.417009 C416.380391,537.391949 417.713391,538.390863 419.065391,539.413752 C414.789391,551.288846 408.956391,562.276903 401.565391,572.377925 C398.364391,575.910087 394.864391,579.073648 391.065391,581.867612 C380.892391,587.782184 370.559391,593.442032 360.065391,598.849156 C344.673391,603.046594 329.007391,605.54388 313.065391,606.341013 C327.938391,602.522164 342.938391,598.693325 358.065391,594.853498 C369.196391,588.793085 380.196391,582.46696 391.065391,575.874126 C395.929391,569.689847 400.762391,563.529542 405.565391,557.39421 C408.846391,550.368845 412.012391,543.376445 415.065391,536.417009 Z M13.0653913,545.407238 C11.2393913,549.66561 10.5733913,553.993906 11.0653913,558.393124 C12.4033913,563.418663 13.7363913,568.413234 15.0653913,573.37684 C8.96839131,565.746133 7.46839131,557.42218 10.5653913,548.403981 C10.9423913,546.963546 11.7753913,545.964632 13.0653913,545.407238 Z M47.0653913,600.347527 C56.0833913,602.016713 65.0833913,603.847723 74.0653913,605.841556 C84.2193913,606.676649 94.2193913,607.508744 104.065391,608.338842 C88.2013913,612.649158 72.5353913,612.1497 57.0653913,606.840471 C53.4963913,604.900579 50.1633913,602.73693 47.0653913,600.347527 Z M298.065391,614.332328 C293.416391,622.279691 286.416391,626.608986 277.065391,627.318215 C280.171391,625.552134 283.504391,624.053763 287.065391,622.8231 C290.608391,619.77741 294.274391,616.947486 298.065391,614.332328 Z M176.065391,619.3269 C177.275391,619.758431 178.275391,620.424707 179.065391,621.324729 C177.692391,621.481558 176.358391,621.31474 175.065391,620.825272 C175.621391,620.442687 175.954391,619.94323 176.065391,619.3269 Z M163.065391,621.324729 C158.551391,625.668008 153.051391,627.998476 146.565391,628.317129 C145.180391,628.303144 144.014391,627.969507 143.065391,627.318215 C150.191391,626.719865 156.858391,624.722036 163.065391,621.324729 Z M179.065391,621.324729 C200.410391,621.642384 221.743391,622.308659 243.065391,623.322557 C238.152391,624.827921 232.986391,625.494197 227.565391,625.320386 C211.201391,624.509268 195.035391,623.177715 179.065391,621.324729 Z" id="Shape" fill="#040301" opacity="0.886"></path>
                <path d="M521.065391,122.866466 C521.076391,124.381819 521.742391,125.547552 523.065391,126.362666 C524.609391,126.652351 525.942391,127.317628 527.065391,128.360495 C534.582391,128.65018 542.082391,129.149637 549.565391,129.858866 C551.573391,130.051657 553.073391,129.385381 554.065391,127.861037 C554.999391,126.794197 555.333391,125.462644 555.065391,123.86538 C555.732391,124.198018 556.398391,124.531656 557.065391,124.864294 C557.065391,125.53057 557.398391,125.863209 558.065391,125.863209 C558.056391,127.669246 558.556391,129.334436 559.565391,130.85778 C561.898391,132.522971 564.232391,134.187162 566.565391,135.852352 C568.089391,138.247749 569.589391,140.578216 571.065391,142.844753 C571.065391,143.177391 571.065391,143.511029 571.065391,143.843667 C571.065391,145.17522 571.065391,146.507772 571.065391,147.839325 C567.697391,148.440671 564.364391,149.273766 561.065391,150.33661 C543.388391,171.165973 534.055391,195.306736 533.065391,222.757901 C532.065391,223.09054 531.398391,223.756816 531.065391,224.75573 C519.354391,224.720768 507.687391,225.387044 496.065391,226.753559 C496.065391,226.087283 495.732391,225.754644 495.065391,225.754644 C493.025391,219.473471 490.692391,213.314165 488.065391,207.274729 C492.451391,202.8845 493.284391,197.72311 490.565391,191.791556 C489.398391,189.960546 488.232391,188.128537 487.065391,186.297527 C484.860391,184.872076 482.693391,184.372619 480.565391,184.799156 C480.113391,182.153032 479.279391,179.655746 478.065391,177.307298 C479.232391,176.807841 480.065391,175.975745 480.565391,174.810012 C481.942391,169.244061 483.442391,163.750032 485.065391,158.327925 C484.054391,150.757153 482.721391,143.265296 481.065391,135.852352 C481.732391,135.852352 482.065391,135.519714 482.065391,134.853438 C483.117391,134.7046 484.117391,134.870419 485.065391,135.352895 C491.579391,142.026642 498.246391,148.519585 505.065391,154.831725 C506.043391,154.355243 506.876391,153.689966 507.565391,152.833896 C508.065391,144.515936 508.231391,136.191983 508.065391,127.861037 C511.378391,127.316629 514.711391,126.817172 518.065391,126.362666 C518.728391,124.846314 519.728391,123.680581 521.065391,122.866466 Z" id="Path" fill="#FCC963" opacity="0.992"></path>
                <path d="M554.065391,117.871894 C554.715391,119.804793 555.048391,121.802622 555.065391,123.86538 C555.333391,125.462644 554.999391,126.794197 554.065391,127.861037 C553.716391,124.310896 553.716391,120.981514 554.065391,117.871894 Z" id="Path" fill="#FFA0A1"></path>
                <path d="M319.065391,131.856695 C321.158391,132.401103 323.158391,133.233199 325.065391,134.353981 C327.402391,138.188813 328.902391,142.351289 329.565391,146.84041 C329.780391,156.875504 330.280391,166.864647 331.065391,176.807841 C330.245391,181.18808 330.245391,185.516376 331.065391,189.793727 C329.992391,190.543912 329.825391,191.542826 330.565391,192.79047 C338.065391,198.950775 345.565391,205.110081 353.065391,211.270386 C367.357391,226.264091 376.023391,244.078729 379.065391,264.712304 C366.342391,268.365334 353.342391,271.527897 340.065391,274.20199 C336.547391,275.222881 334.213391,277.387528 333.065391,280.694934 C332.813391,283.938409 334.313391,285.269961 337.565391,284.690591 C352.065391,281.994521 366.398391,278.664141 380.565391,274.701448 C381.337391,274.84629 382.004391,275.178929 382.565391,275.700362 C382.898391,280.369288 382.732391,285.030222 382.065391,289.685163 C381.131391,290.752003 380.797391,292.083556 381.065391,293.68082 C379.762391,295.321038 378.429391,296.986228 377.065391,298.675392 C375.823391,299.217803 374.490391,299.55144 373.065391,299.674306 C361.567391,297.713438 350.067391,295.715609 338.565391,293.68082 C334.022391,293.31322 332.522391,295.14423 334.065391,299.174849 C347.665391,303.882733 361.665391,306.879476 376.065391,308.165078 C376.906391,312.971854 375.906391,317.466969 373.065391,321.650422 C361.556391,316.314222 349.556391,313.151659 337.065391,312.160736 C336.608391,312.574286 336.274391,313.073744 336.065391,313.659107 C337.313391,315.615981 338.980391,317.114352 341.065391,318.154222 C349.657391,321.347751 358.323391,324.344494 367.065391,327.144451 C367.902391,328.154354 368.235391,329.320087 368.065391,330.640651 C367.227391,330.98228 366.893391,331.647557 367.065391,332.63848 C366.398391,332.63848 366.065391,332.971119 366.065391,333.637395 C365.227391,333.979023 364.893391,334.6443 365.065391,335.635223 C361.771391,342.767472 356.771391,348.594139 350.065391,353.116224 C338.042391,361.118527 325.042391,366.946194 311.065391,370.597226 C309.246391,374.202308 310.246391,376.532775 314.065391,377.589626 C327.645391,374.800657 339.979391,369.306628 351.065391,361.107539 C355.910391,357.755183 360.577391,354.258982 365.065391,350.618939 C369.506391,355.706409 373.506391,361.03362 377.065391,366.601568 C377.554391,368.094945 378.220391,369.427497 379.065391,370.597226 C380.024391,374.47601 381.357391,378.139029 383.065391,381.585284 C382.893391,382.576207 383.227391,383.241484 384.065391,383.583112 C383.828391,384.872711 384.161391,385.871625 385.065391,386.579855 C384.828391,387.869454 385.161391,388.868368 386.065391,389.576598 C385.893391,390.567521 386.227391,391.232798 387.065391,391.574427 C386.828391,392.864026 387.161391,393.86294 388.065391,394.57117 C387.893391,395.562093 388.227391,396.22737 389.065391,396.568999 C388.828391,397.858597 389.161391,398.857512 390.065391,399.565742 C389.828391,400.85534 390.161391,401.854255 391.065391,402.562485 C390.698391,408.491042 392.031391,414.15089 395.065391,419.544029 C380.124391,422.240099 365.457391,426.402575 351.065391,432.030459 C348.811391,433.405964 346.645391,434.904335 344.565391,436.525573 C343.994391,440.636106 345.828391,443.133392 350.065391,444.017431 C367.400391,444.3221 384.733391,444.155281 402.065391,443.517974 C404.059391,449.829114 406.059391,456.155239 408.065391,462.497346 C396.724391,464.326359 385.390391,466.823644 374.065391,469.989204 C369.634391,471.616435 365.801391,474.113721 362.565391,477.481062 C361.523391,480.781475 362.690391,482.946122 366.065391,483.974005 C368.797391,484.386557 371.464391,485.052832 374.065391,485.971834 C388.473391,487.283408 402.806391,488.78178 417.065391,490.466948 C417.551391,498.476244 418.218391,506.467558 419.065391,514.440893 C413.620391,512.553944 408.287391,510.389296 403.065391,507.947949 C388.111391,506.629383 386.111391,511.290317 397.065391,521.93275 C403.684391,526.061263 409.684391,530.889017 415.065391,536.417009 C412.012391,543.376445 408.846391,550.368845 405.565391,557.39421 C400.762391,563.529542 395.929391,569.689847 391.065391,575.874126 C380.196391,582.46696 369.196391,588.793085 358.065391,594.853498 C342.938391,598.693325 327.938391,602.522164 313.065391,606.341013 C312.073391,606.1692 311.407391,606.502838 311.065391,607.339928 C310.468391,607.105183 310.135391,606.605726 310.065391,605.841556 C312.921391,597.571544 314.754391,589.080772 315.565391,580.36924 C316.769391,567.399336 317.769391,554.41345 318.565391,541.41158 C320.774391,538.773448 321.274391,535.942524 320.065391,532.920808 C319.065391,532.254532 318.065391,532.254532 317.065391,532.920808 C314.828391,534.948604 313.328391,537.44589 312.565391,540.412666 C312.240391,560.567761 310.240391,580.546048 306.565391,600.347527 C305.565391,605.692718 303.065391,610.021014 299.065391,613.333414 C298.398391,613.333414 298.065391,613.666052 298.065391,614.332328 C294.274391,616.947486 290.608391,619.77741 287.065391,622.8231 C283.504391,624.053763 280.171391,625.552134 277.065391,627.318215 C263.274391,627.170376 253.441391,620.844251 247.565391,608.338842 C238.003391,584.927286 234.837391,560.619704 238.065391,535.418094 C236.743391,535.248279 235.576391,535.580917 234.565391,536.417009 C230.078391,562.349824 233.078391,587.322683 243.565391,611.335585 C245.677391,615.109484 248.177391,618.605684 251.065391,621.824186 C248.502391,622.902015 245.836391,623.401472 243.065391,623.322557 C221.743391,622.308659 200.410391,621.642384 179.065391,621.324729 C178.275391,620.424707 177.275391,619.758431 176.065391,619.3269 C182.840391,604.854629 188.340391,589.870914 192.565391,574.375754 C193.232391,563.055058 193.232391,551.733362 192.565391,540.412666 C192.267391,535.944522 190.100391,532.947779 186.065391,531.422437 C183.500391,531.821004 182.166391,533.319375 182.065391,535.917551 C188.650391,564.031996 184.483391,590.503226 169.565391,615.331243 C168.168391,616.899538 166.668391,618.23209 165.065391,619.3269 C164.398391,619.3269 164.065391,619.659539 164.065391,620.325814 C163.398391,620.325814 163.065391,620.658453 163.065391,621.324729 C156.858391,624.722036 150.191391,626.719865 143.065391,627.318215 C142.398391,627.318215 141.732391,627.318215 141.065391,627.318215 C131.678391,625.116608 124.011391,620.122036 118.065391,612.3345 C129.426391,607.909309 139.593391,601.583184 148.565391,593.355127 C160.973391,578.957774 159.807391,565.805069 145.065391,553.89801 C141.045391,550.221006 136.378391,548.889453 131.065391,549.902352 C127.732391,553.89801 124.398391,557.893667 121.065391,561.889325 C117.232391,564.386611 113.398391,566.883896 109.565391,569.381182 C108.306391,558.579921 106.306391,547.924502 103.565391,537.415923 C102.539391,534.226389 100.373391,532.894837 97.0653913,533.420266 C100.420391,545.362287 103.087391,557.515079 105.065391,569.880639 C104.732391,570.712735 104.398391,571.54583 104.065391,572.377925 C85.4693913,580.693887 68.1353913,578.52924 52.0653913,565.884982 C41.3563913,559.306132 35.0223913,549.816446 33.0653913,537.415923 C34.3983913,537.083284 34.3983913,536.749647 33.0653913,536.417009 C33.2373913,535.426086 32.9033913,534.760809 32.0653913,534.41918 C32.0653913,533.420266 32.0653913,532.421351 32.0653913,531.422437 C32.7323913,525.096312 33.3983913,518.769189 34.0653913,512.443064 C42.0403913,510.612054 50.0403913,508.781044 58.0653913,506.949035 C62.4763913,502.925408 61.8093913,499.928665 56.0653913,497.958806 C49.3963913,496.297611 42.7293913,494.79924 36.0653913,493.463691 C37.6563913,485.849966 38.9893913,478.19129 40.0653913,470.488661 C48.2473913,470.919193 56.4143913,471.58447 64.5653913,472.48649 C68.1343913,472.700258 71.4673913,472.033982 74.5653913,470.488661 C75.3113913,467.203232 74.1453913,464.705946 71.0653913,462.996804 C62.7743913,458.738432 54.1073913,455.57487 45.0653913,453.507117 C45.5883913,450.132784 46.9213913,447.136041 49.0653913,444.516888 C50.9763913,444.442968 52.1433913,443.444054 52.5653913,441.520145 C53.2273913,439.209656 53.7273913,436.879189 54.0653913,434.527744 C54.6623913,433.889438 55.4953913,433.5568 56.5653913,433.52883 C67.6753913,435.851306 78.8413913,437.849135 90.0653913,439.522316 C96.1223913,440.066724 97.4553913,437.903076 94.0653913,433.029373 C83.8873913,426.340642 73.8873913,419.514062 64.0653913,412.551629 C64.9033913,412.21 65.2373913,411.544723 65.0653913,410.5538 C65.9033913,410.212171 66.2373913,409.546894 66.0653913,408.555971 C68.4523913,406.145591 70.6193913,403.481486 72.5653913,400.564656 C74.9163913,393.690128 76.7493913,386.697727 78.0653913,379.587455 C78.0653913,379.254816 78.0653913,378.921179 78.0653913,378.588541 C78.9693913,377.88031 79.3023913,376.881396 79.0653913,375.591797 C83.4313913,361.819765 87.4313913,347.834964 91.0653913,333.637395 C113.215391,355.690427 139.882391,369.342589 171.065391,374.592883 C175.796391,372.933686 176.129391,370.769039 172.065391,368.09994 C145.679391,362.829668 122.513391,351.342153 102.565391,333.637395 C100.922391,331.163084 99.0893913,328.832616 97.0653913,326.644994 C106.620391,323.854027 116.287391,321.356741 126.065391,319.153136 C127.533391,313.346447 125.200391,311.348619 119.065391,313.15965 C110.331391,315.696893 101.498391,317.860541 92.5653913,319.652594 C87.6323913,315.470139 84.4653913,310.14193 83.0653913,303.669964 C93.3453913,302.322428 103.679391,301.489334 114.065391,301.172678 C119.485391,298.726337 119.152391,296.728508 113.065391,295.179192 C102.803391,294.689724 92.6373913,295.522818 82.5653913,297.676478 C81.3983913,297.343839 80.2323913,297.010202 79.0653913,296.677563 C76.9303913,292.114523 75.5963913,287.453588 75.0653913,282.692762 C75.3333913,281.095498 74.9993913,279.763946 74.0653913,278.697105 C74.3563913,277.549352 75.1893913,276.883077 76.5653913,276.699276 C89.9013913,279.966725 103.401391,281.797735 117.065391,282.193305 C118.356391,280.105574 117.689391,278.773023 115.065391,278.197648 C101.190391,276.122903 87.5233913,273.12616 74.0653913,269.207419 C73.3133913,268.537147 72.9793913,267.705051 73.0653913,266.710133 C74.3983913,266.377494 74.3983913,266.043857 73.0653913,265.711218 C72.8893913,260.337059 73.2233913,255.009849 74.0653913,249.728589 C74.9993913,248.661748 75.3333913,247.330195 75.0653913,245.732931 C75.9693913,245.024701 76.3023913,244.025787 76.0653913,242.736188 C77.0163913,241.318729 77.3493913,239.654537 77.0653913,237.741616 C77.9693913,237.033386 78.3023913,236.034472 78.0653913,234.744873 C78.9693913,234.036643 79.3023913,233.037729 79.0653913,231.74813 C82.8663913,224.161376 87.1993913,216.836337 92.0653913,209.772015 C92.9663913,208.982872 93.6333913,207.983958 94.0653913,206.775271 C94.7323913,206.775271 95.0653913,206.442633 95.0653913,205.776357 C95.7323913,205.776357 96.0653913,205.443719 96.0653913,204.777443 C100.781391,199.736921 105.448391,194.742349 110.065391,189.793727 C111.827391,189.032555 112.827391,187.700003 113.065391,185.79807 C114.725391,187.544172 116.725391,188.043629 119.065391,187.296442 C128.996391,181.32593 139.662391,177.330273 151.065391,175.309469 C153.316391,174.562281 154.649391,173.06391 155.065391,170.814355 C155.999391,169.747514 156.333391,168.415961 156.065391,166.818697 C157.713391,168.127275 159.379391,169.458828 161.065391,170.814355 C164.252391,169.311988 167.586391,168.313073 171.065391,167.817612 C171.364391,175.348427 172.864391,182.673466 175.565391,189.793727 C176.809391,194.210927 179.642391,196.542393 184.065391,196.786128 C185.319391,192.275031 187.152391,187.946735 189.565391,183.800241 C190.728391,177.516071 191.561391,171.188948 192.065391,164.820869 C193.980391,165.10456 195.646391,164.771922 197.065391,163.821954 C200.398391,163.821954 203.732391,163.821954 207.065391,163.821954 C205.300391,178.185344 207.467391,191.836507 213.565391,204.777443 C214.304391,205.850277 215.304391,206.516553 216.565391,206.775271 C218.886391,205.789343 220.552391,204.124153 221.565391,201.7807 C227.627391,189.518027 229.794391,176.53214 228.065391,162.82304 C232.398391,162.82304 236.732391,162.82304 241.065391,162.82304 C241.682391,162.933919 242.182391,163.266558 242.565391,163.821954 C243.787391,171.037113 245.787391,178.029513 248.565391,184.799156 C251.042391,189.661871 254.042391,189.994509 257.565391,185.79807 C260.263391,178.859611 263.429391,172.200848 267.065391,165.819783 C271.609391,167.339132 276.109391,169.004322 280.565391,170.814355 C282.580391,169.618654 284.414391,168.287101 286.065391,166.818697 C286.732391,166.818697 287.065391,166.486059 287.065391,165.819783 C287.398391,165.819783 287.732391,165.819783 288.065391,165.819783 C288.732391,166.818697 289.398391,167.817612 290.065391,168.816526 C290.076391,170.331879 290.742391,171.497612 292.065391,172.312726 C299.403391,174.478373 306.403391,177.475116 313.065391,181.302955 C316.169391,182.369796 319.336391,183.201892 322.565391,183.800241 C324.276391,183.861175 325.609391,183.194899 326.565391,181.802413 C326.565391,168.821521 326.232391,155.835634 325.565391,142.844753 C323.393391,134.188161 318.893391,132.689789 312.065391,138.349638 C306.522391,144.382082 301.189391,150.541388 296.065391,156.829554 C295.732391,156.829554 295.398391,156.829554 295.065391,156.829554 C296.732391,153.500172 298.398391,150.169792 300.065391,146.84041 C300.732391,146.84041 301.065391,146.507772 301.065391,145.841496 C301.732391,145.841496 302.065391,145.508857 302.065391,144.842581 C302.732391,144.842581 303.065391,144.509943 303.065391,143.843667 C306.977391,137.936088 312.310391,133.94043 319.065391,131.856695 Z M286.065391,166.818697 C284.414391,168.287101 282.580391,169.618654 280.565391,170.814355 C276.109391,169.004322 271.609391,167.339132 267.065391,165.819783 C267.185391,164.734962 267.852391,164.068686 269.065391,163.821954 C274.717391,164.984691 280.383391,165.983605 286.065391,166.818697 Z M176.065391,619.3269 C177.275391,619.758431 178.275391,620.424707 179.065391,621.324729 C177.692391,621.481558 176.358391,621.31474 175.065391,620.825272 C175.621391,620.442687 175.954391,619.94323 176.065391,619.3269 Z M179.065391,621.324729 C200.410391,621.642384 221.743391,622.308659 243.065391,623.322557 C238.152391,624.827921 232.986391,625.494197 227.565391,625.320386 C211.201391,624.509268 195.035391,623.177715 179.065391,621.324729 Z" id="Shape" fill="#FDCB64" opacity="0.992"></path>
                <path d="M290.065391,168.816526 C290.667391,164.192551 292.667391,160.196894 296.065391,156.829554 C301.189391,150.541388 306.522391,144.382082 312.065391,138.349638 C318.893391,132.689789 323.393391,134.188161 325.565391,142.844753 C326.232391,155.835634 326.565391,168.821521 326.565391,181.802413 C325.609391,183.194899 324.276391,183.861175 322.565391,183.800241 C319.336391,183.201892 316.169391,182.369796 313.065391,181.302955 C306.403391,177.475116 299.403391,174.478373 292.065391,172.312726 C290.742391,171.497612 290.076391,170.331879 290.065391,168.816526 Z" id="Path" fill="#FF7DD0"></path>
                <path d="M132.065391,139.84801 C132.984391,142.434199 134.651391,144.432028 137.065391,145.841496 C140.065391,149.837153 143.065391,153.832811 146.065391,157.828468 C148.694391,160.956069 151.527391,163.952812 154.565391,166.818697 C155.055391,168.110294 155.222391,169.442845 155.065391,170.814355 C154.649391,173.06391 153.316391,174.562281 151.065391,175.309469 C139.662391,177.330273 128.996391,181.32593 119.065391,187.296442 C116.725391,188.043629 114.725391,187.544172 113.065391,185.79807 C113.065391,185.131794 113.065391,184.466517 113.065391,183.800241 C114.040391,173.56037 114.373391,163.237589 114.065391,152.833896 C114.398391,150.169792 114.732391,147.506686 115.065391,144.842581 C118.349391,143.227337 121.016391,140.89687 123.065391,137.850181 C126.510391,136.462689 129.510391,137.128965 132.065391,139.84801 Z" id="Path" fill="#FF7CD1" opacity="0.993"></path>
                <path d="M123.065391,137.850181 C121.016391,140.89687 118.349391,143.227337 115.065391,144.842581 C116.470391,141.110637 119.136391,138.78017 123.065391,137.850181 Z" id="Path" fill="#FFBF77" opacity="0.31"></path>
                <path d="M132.065391,139.84801 C134.065391,141.179563 135.732391,142.844753 137.065391,144.842581 C137.065391,145.17522 137.065391,145.508857 137.065391,145.841496 C134.651391,144.432028 132.984391,142.434199 132.065391,139.84801 Z" id="Path" fill="#FFA699" opacity="0.788"></path>
                <path d="M137.065391,144.842581 C141.445391,147.893266 144.779391,151.888923 147.065391,156.829554 C147.065391,157.49583 146.732391,157.828468 146.065391,157.828468 C143.065391,153.832811 140.065391,149.837153 137.065391,145.841496 C137.065391,145.508857 137.065391,145.17522 137.065391,144.842581 Z" id="Path" fill="#FFC470" opacity="0.144"></path>
                <path d="M468.065391,151.834982 C469.669391,152.621128 470.336391,153.95268 470.065391,155.830639 C469.264391,157.370965 468.931391,159.035157 469.065391,160.825211 C468.732391,160.825211 468.398391,160.825211 468.065391,160.825211 C468.065391,157.828468 468.065391,154.831725 468.065391,151.834982 Z" id="Path" fill="#F5C461" opacity="0.175"></path>
                <path d="M563.065391,151.834982 C598.696391,148.756328 627.530391,161.076938 649.565391,188.794813 C654.940391,197.702132 660.440391,206.526542 666.065391,215.266043 C682.730391,218.227825 699.063391,222.390301 715.065391,227.752473 C706.579391,256.095669 702.245391,285.064185 702.065391,314.658022 C693.392391,314.823842 684.725391,314.658022 676.065391,314.158565 C670.694391,312.404471 665.194391,311.238738 659.565391,310.662364 C652.584391,313.995742 645.417391,317.159303 638.065391,320.152051 C612.264391,324.73507 586.264391,327.399174 560.065391,328.143366 C564.251391,322.12191 565.084391,315.628967 562.565391,308.664536 C557.529391,303.596044 551.363391,300.93194 544.065391,300.673221 C550.161391,297.415761 555.161391,292.920647 559.065391,287.187877 C573.437391,281.791742 587.771391,276.297713 602.065391,270.70579 C605.010391,272.347006 608.010391,273.678559 611.065391,274.701448 C611.222391,273.329938 611.055391,271.997386 610.565391,270.70579 C594.212391,260.712651 584.879391,246.061574 582.565391,226.753559 C581.553391,218.105957 580.720391,209.449365 580.065391,200.781785 C578.277391,200.497095 576.610391,200.829733 575.065391,201.7807 C571.455391,211.183481 565.788391,219.007977 558.065391,225.255187 C551.126391,229.013103 544.626391,228.513646 538.565391,223.756816 C538.265391,201.012535 544.265391,180.035333 556.565391,160.825211 C559.241391,158.122149 561.407391,155.125406 563.065391,151.834982 Z" id="Path" fill="#FDC9A1"></path>
                <path d="M470.065391,155.830639 C470.668391,157.954331 470.668391,160.284798 470.065391,162.82304 C469.227391,162.481411 468.893391,161.816134 469.065391,160.825211 C468.931391,159.035157 469.264391,157.370965 470.065391,155.830639 Z" id="Path" fill="#6F592C" opacity="0.827"></path>
                <path d="M147.065391,156.829554 C150.036391,160.133962 153.036391,163.463344 156.065391,166.818697 C156.333391,168.415961 155.999391,169.747514 155.065391,170.814355 C155.222391,169.442845 155.055391,168.110294 154.565391,166.818697 C151.527391,163.952812 148.694391,160.956069 146.065391,157.828468 C146.732391,157.828468 147.065391,157.49583 147.065391,156.829554 Z" id="Path" fill="#FF9DA5" opacity="0.839"></path>
                <path d="M295.065391,156.829554 C295.398391,156.829554 295.732391,156.829554 296.065391,156.829554 C292.667391,160.196894 290.667391,164.192551 290.065391,168.816526 C289.398391,167.817612 288.732391,166.818697 288.065391,165.819783 C290.047391,162.513376 292.380391,159.516633 295.065391,156.829554 Z" id="Path" fill="#FF98AC" opacity="0.694"></path>
                <path d="M471.065391,163.821954 C472.398391,163.821954 473.065391,164.48823 473.065391,165.819783 C472.065391,165.487144 471.398391,164.820869 471.065391,163.821954 Z" id="Path" fill="#E1B459" opacity="0.392"></path>
                <path d="M114.065391,152.833896 C114.373391,163.237589 114.040391,173.56037 113.065391,183.800241 C111.821391,173.444496 112.154391,163.122714 114.065391,152.833896 Z" id="Path" fill="#FFC272" opacity="0.885"></path>
                <path d="M528.065391,166.818697 C533.612391,167.861564 537.112391,171.190945 538.565391,176.807841 C540.681391,191.174227 534.847391,195.669342 521.065391,190.293185 C515.941391,184.925019 514.774391,178.765713 517.565391,171.813269 C521.022391,169.841412 524.522391,168.177221 528.065391,166.818697 Z" id="Path" fill="#060402"></path>
                <path d="M476.065391,181.802413 C478.331391,184.561414 479.664391,187.890796 480.065391,191.791556 C479.398391,191.458918 478.732391,191.12528 478.065391,190.792642 C478.237391,189.801719 477.903391,189.136442 477.065391,188.794813 C477.065391,188.462175 477.065391,188.128537 477.065391,187.795899 C477.048391,185.733141 476.715391,183.735312 476.065391,181.802413 Z" id="Path" fill="#C9A150" opacity="0.034"></path>
                <path d="M474.065391,199.782871 C475.065391,199.782871 476.065391,199.782871 477.065391,199.782871 C480.139391,208.660223 482.805391,217.650452 485.065391,226.753559 C479.536391,226.968325 474.203391,228.134058 469.065391,230.249759 C460.822391,231.208717 452.822391,230.209802 445.065391,227.253016 C438.678391,223.705871 437.178391,218.878118 440.565391,212.768758 C445.067391,207.937009 450.567391,204.774446 457.065391,203.279071 C462.880391,202.151297 468.546391,200.986563 474.065391,199.782871 Z" id="Path" fill="#F8C59D"></path>
                <path d="M518.065391,211.769843 C520.623391,214.594773 520.289391,217.424697 517.065391,220.260615 C513.169391,221.068737 509.502391,222.401289 506.065391,224.256273 C503.755391,224.752733 501.422391,224.918553 499.065391,224.75573 C499.065391,223.756816 499.065391,222.757901 499.065391,221.758987 C503.020391,222.195512 506.186391,220.86396 508.565391,217.763329 C514.434391,220.060832 517.600391,218.063004 518.065391,211.769843 Z" id="Path" fill="#1A150B"></path>
                <path d="M923.065391,245.732931 C923.065391,282.026487 923.065391,318.321041 923.065391,354.614596 C885.785391,349.663976 848.451391,345.168862 811.065391,341.129252 C776.356391,336.129686 741.689391,330.968295 707.065391,325.64608 C704.985391,289.053849 709.818391,253.425571 721.565391,218.762244 C735.047391,220.654188 748.547391,222.818835 762.065391,225.255187 C815.902391,230.854102 869.569391,237.679684 923.065391,245.732931 Z" id="Path" fill="#00A9FE"></path>
                <path d="M508.065391,228.751387 C515.073391,228.585567 522.073391,228.751387 529.065391,229.250844 C540.975391,231.147783 547.142391,237.974364 547.565391,249.728589 C543.306391,256.438296 537.139391,259.934497 529.065391,260.217189 C512.741391,261.29302 496.407391,261.625659 480.065391,261.216104 C470.656391,255.218622 468.823391,247.394126 474.565391,237.741616 C477.862391,234.677946 481.696391,232.514298 486.065391,231.248673 C493.572391,230.628347 500.906391,229.796252 508.065391,228.751387 Z" id="Path" fill="#FCC8A0"></path>
                <path d="M264.065391,231.74813 C281.981391,230.936013 289.147391,239.259966 285.565391,256.720989 C275.485391,269.971588 265.485391,269.971588 255.565391,256.720989 C250.012391,245.438252 252.845391,237.114298 264.065391,231.74813 Z" id="Path" fill="#070502"></path>
                <path d="M174.065391,232.747045 C188.478391,231.34357 195.645391,237.669695 195.565391,251.726417 C192.182391,262.160078 185.015391,266.655192 174.065391,265.211761 C163.748391,260.103313 160.581391,252.278817 164.565391,241.737274 C166.995391,237.807545 170.162391,234.810802 174.065391,232.747045 Z" id="Path" fill="#080603"></path>
                <path d="M568.065391,236.742702 C569.398391,236.742702 570.732391,236.742702 572.065391,236.742702 C572.065391,238.407892 572.065391,240.072084 572.065391,241.737274 C570.732391,241.737274 569.398391,241.737274 568.065391,241.737274 C568.065391,240.072084 568.065391,238.407892 568.065391,236.742702 Z" id="Path" fill="#000000" opacity="0.622"></path>
                <path d="M582.065391,253.724246 C584.032391,253.485506 585.866391,253.818144 587.565391,254.723161 C589.038391,258.997515 591.038391,262.993172 593.565391,266.710133 C594.232391,267.709047 594.232391,268.707961 593.565391,269.706876 C585.300391,272.492848 576.967391,275.156953 568.565391,277.698191 C564.226391,272.533803 561.726391,266.540317 561.065391,259.717732 C568.276391,258.088503 575.276391,256.090674 582.065391,253.724246 Z" id="Path" fill="#F700A5" opacity="0.999"></path>
                <path d="M555.065391,261.715561 C556.065391,261.715561 557.065391,261.715561 558.065391,261.715561 C559.265391,267.643119 561.265391,273.302968 564.065391,278.697105 C563.127391,279.748962 561.960391,280.415238 560.565391,280.694934 C558.746391,279.070699 557.413391,277.07287 556.565391,274.701448 C553.304391,271.340101 549.804391,268.343358 546.065391,265.711218 C548.977391,263.973107 551.977391,262.641555 555.065391,261.715561 Z" id="Path" fill="#ED009E" opacity="0.999"></path>
                <path d="M506.065391,266.710133 C516.404391,266.544313 526.737391,266.710133 537.065391,267.20959 C544.439391,268.305399 550.272391,271.801599 554.565391,277.698191 C556.565391,280.694934 556.565391,283.691677 554.565391,286.68842 C551.178391,292.803774 546.011391,296.632612 539.065391,298.175935 C524.065391,298.842211 509.065391,298.842211 494.065391,298.175935 C487.053391,298.001125 483.719391,294.504925 484.065391,287.687334 C484.032391,280.598039 487.032391,275.10401 493.065391,271.205247 C497.280391,268.970676 501.613391,267.472304 506.065391,266.710133 Z" id="Path" fill="#FBC79F"></path>
                <path d="M255.065391,294.679735 C258.429391,294.053415 260.429391,295.384968 261.065391,298.675392 C258.201391,311.901018 250.201391,316.728771 237.065391,313.15965 C234.888391,311.646295 232.721391,310.147923 230.565391,308.664536 C224.209391,312.319563 217.376391,313.484297 210.065391,312.160736 C205.998391,309.76434 202.998391,306.434959 201.065391,302.171592 C201.299391,300.441473 202.299391,299.608378 204.065391,299.674306 C206.845391,301.275566 209.511391,303.107575 212.065391,305.168335 C215.065391,305.834611 218.065391,305.834611 221.065391,305.168335 C225.468391,303.576066 229.135391,301.07878 232.065391,297.676478 C232.732391,298.009116 233.398391,298.342754 234.065391,298.675392 C234.545391,301.121733 235.545391,303.285382 237.065391,305.168335 C242.007391,307.287033 246.840391,307.120214 251.565391,304.668878 C252.054391,300.984882 253.220391,297.655501 255.065391,294.679735 Z" id="Path" fill="#130F08"></path>
                <path d="M525.065391,303.669964 C531.074391,303.504144 537.074391,303.670963 543.065391,304.169421 C550.677391,303.584057 556.511391,306.413982 560.565391,312.660193 C561.997391,319.953267 559.497391,325.447296 553.065391,329.14228 C542.003391,332.342802 530.669391,333.841173 519.065391,333.637395 C506.291391,336.339458 500.125391,331.344886 500.565391,318.653679 C505.454391,309.134025 513.287391,304.638911 524.065391,305.168335 C524.621391,304.785751 524.954391,304.286294 525.065391,303.669964 Z" id="Path" fill="#FBC79F"></path>
                <path d="M20.0653913,539.413752 C21.5823913,539.42474 22.7493913,540.090017 23.5653913,541.41158 C29.0583913,559.226219 40.5583913,571.712648 58.0653913,578.870869 C70.7273913,583.14822 83.7273913,584.479773 97.0653913,582.866526 C110.414391,577.177709 121.747391,568.853756 131.065391,557.893667 C133.478391,557.410193 135.811391,557.74383 138.065391,558.892582 C151.826391,566.461356 153.659391,576.28368 143.565391,588.360555 C132.657391,599.386572 119.490391,606.045335 104.065391,608.338842 C94.2193913,607.508744 84.2193913,606.676649 74.0653913,605.841556 C65.0833913,603.847723 56.0833913,602.016713 47.0653913,600.347527 C34.0773913,595.370936 23.7443913,587.046983 16.0653913,575.374668 C16.2373913,574.383745 15.9033913,573.718468 15.0653913,573.37684 C13.7363913,568.413234 12.4033913,563.418663 11.0653913,558.393124 C10.5733913,553.993906 11.2393913,549.66561 13.0653913,545.407238 C14.0653913,543.742048 15.3983913,542.410495 17.0653913,541.41158 C18.2753913,540.980049 19.2753913,540.313773 20.0653913,539.413752 Z" id="Path" fill="#FCC964" opacity="0.968"></path>
                <path d="M25.0653913,538.414837 C25.6823913,538.525717 26.1823913,538.858355 26.5653913,539.413752 C27.4793913,542.455446 28.1463913,545.452189 28.5653913,548.403981 C26.7073913,545.335316 25.5413913,542.005934 25.0653913,538.414837 Z" id="Path" fill="#7C6331"></path>
            </g>
        </g>
    </g>
</svg>