<?xml version="1.0" encoding="UTF-8"?>
<svg width="778px" height="676px" viewBox="0 0 778 676" version="1.1" xmlns="http://www.w3.org/2000/svg" xmlns:xlink="http://www.w3.org/1999/xlink">
    <title>on boarding - challenge</title>
    <g id="coba-coba" stroke="none" stroke-width="1" fill="none" fill-rule="evenodd">
        <g id="on-boarding---challenge">
            <path d="M342.881682,-5.74170388e-14 C360.786559,1.57170195 371.055146,11.3362539 373.689464,29.2926456 C375.102582,30.026982 376.617719,30.5320276 378.234875,30.8077825 C379.581326,32.1542341 379.581326,33.5016958 378.234875,34.8481474 C392.098377,41.6369706 401.189198,52.4116137 405.507338,67.1710667 C403.635639,70.8003245 400.605365,72.3154614 396.416517,71.7164773 C388.714571,68.6821632 381.307572,69.1872088 374.19451,73.2316141 C368.470323,73.905345 362.747146,73.905345 357.022959,73.2316141 C353.980564,72.443743 351.118976,71.2649665 348.437184,69.6962948 C348.625061,65.6720914 348.625061,61.6317264 348.437184,57.5752001 C346.424072,59.4721514 344.236214,59.8095219 341.871591,58.5852913 C335.234281,52.2429285 333.046424,44.498559 335.305998,35.353193 C335.658519,31.2300006 337.342342,27.8633666 340.356454,25.2522807 C339.946357,19.2200159 339.946357,13.1594685 340.356454,7.07063861 C340.510998,4.39288676 341.353414,2.03634392 342.881682,-5.74170388e-14 Z M347.932138,7.07063861 C347.708908,9.66354279 347.035177,12.0210957 345.911956,14.1412772 C345.579636,11.3857483 346.252356,9.02819541 347.932138,7.07063861 Z M380.255057,65.6559299 C386.839842,65.6832024 393.57412,65.346842 400.456882,64.6458387 C400.034664,65.3751245 399.361943,65.8801702 398.436699,66.1609755 C392.35393,66.741778 386.293383,66.5741028 380.255057,65.6559299 Z M379.244966,65.6559299 C377.29953,67.4670235 374.942988,68.4771147 372.174327,68.6862036 C374.119763,66.87511 376.476306,65.8650188 379.244966,65.6559299 Z M357.022959,68.6862036 C361.737055,68.6862036 366.45014,68.6862036 371.164236,68.6862036 C366.432969,71.2881986 361.718873,71.2881986 357.022959,68.6862036 Z" id="Shape" fill="#010707" opacity="0.694"></path>
            <path d="M340.861499,49.4944702 C341.035235,48.4924597 340.697865,47.819739 339.851408,47.4742878 C339.851408,44.4440141 339.851408,41.4137404 339.851408,38.3834667 C340.764531,37.667312 341.100891,36.6572208 340.861499,35.353193 C341.707956,35.0077418 342.045326,34.3350211 341.871591,33.3330106 C342.718047,32.9875594 343.055418,32.3148386 342.881682,31.3128281 C343.791774,30.514856 344.465505,29.5047648 344.901864,28.2825544 C345.897814,23.7674466 346.234175,19.0533509 345.911956,14.1412772 C347.035177,12.0210957 347.708908,9.66354279 347.932138,7.07063861 C354.136118,6.3686252 359.35526,8.72516804 363.588552,14.1412772 C368.691533,20.3573786 370.711715,27.4280172 369.649099,35.353193 C365.103689,38.5521519 361.232009,42.4238316 358.03305,46.9692422 C354.500761,49.5783078 350.796757,51.9348506 346.922047,54.0398808 C345.463475,54.828762 344.117023,54.6600768 342.881682,53.5348352 C342.382697,51.9934359 341.708966,50.6469843 340.861499,49.4944702 Z" id="Path" fill="#0EF8F9" opacity="0.97"></path>
            <path d="M351.972503,15.1513684 C358.020929,15.3170234 359.367381,17.8422515 356.012868,22.7270527 C349.854342,22.8755361 348.50789,20.350308 351.972503,15.1513684 Z" id="Path" fill="#CF2A67"></path>
            <path d="M353.992685,25.2522807 C355.762365,25.1694533 356.772456,26.0108592 357.022959,27.7775088 C355.634084,30.8774788 353.951272,31.046164 351.972503,28.2825544 C352.672496,27.2542815 353.345217,26.2441903 353.992685,25.2522807 Z" id="Path" fill="#C24172"></path>
            <path d="M342.881682,36.3632843 C343.891773,36.3632843 344.901864,36.3632843 345.911956,36.3632843 C346.248316,39.3935579 344.901864,40.7400096 341.871591,40.4036492 C341.803915,38.9299261 342.140275,37.5834745 342.881682,36.3632843 Z" id="Path" fill="#CD2B68" opacity="0.998"></path>
            <path d="M400.456882,64.6458387 C393.57412,65.346842 386.839842,65.6832024 380.255057,65.6559299 C379.918697,65.6559299 379.581326,65.6559299 379.244966,65.6559299 C376.476306,65.8650188 374.119763,66.87511 372.174327,68.6862036 C371.837967,68.6862036 371.500597,68.6862036 371.164236,68.6862036 C366.45014,68.6862036 361.737055,68.6862036 357.022959,68.6862036 C356.686599,68.6862036 356.349228,68.6862036 356.012868,68.6862036 C354.93409,67.7427784 353.587639,67.4054079 351.972503,67.6761124 C351.821999,64.5377589 352.327045,61.5074852 353.48764,58.5852913 C358.605772,49.0904337 366.012771,42.0197951 375.709647,37.3733755 C386.748934,42.0147447 394.829664,49.7591141 399.951836,60.6054738 C400.446781,61.9115217 400.615466,63.2589834 400.456882,64.6458387 Z" id="Path" fill="#15F6F8" opacity="0.961"></path>
            <path d="M343.891773,43.4339229 C348.345265,42.826858 349.691717,44.5106801 347.932138,48.484379 C343.706926,49.3015428 342.360475,47.6177207 343.891773,43.4339229 Z" id="Path" fill="#C9346C" opacity="0.999"></path>
            <path d="M377.224784,53.5348352 C379.834859,54.0883651 380.844951,55.7721872 380.255057,58.5852913 C375.220763,58.9448838 374.210671,57.2610617 377.224784,53.5348352 Z" id="Path" fill="#C83A6D"></path>
            <path d="M384.295422,54.5449264 C390.787279,52.7893878 393.481192,55.1459307 392.376152,61.615565 C386.021668,63.686252 383.328765,61.3297092 384.295422,54.5449264 Z" id="Path" fill="#D02C67"></path>
            <path d="M356.012868,58.5852913 C357.729013,58.4236767 359.412835,58.5913518 361.063324,59.0903369 C362.528966,62.3286894 361.518875,64.0125115 358.03305,64.1407931 C356.361349,62.6822213 355.687618,60.829714 356.012868,58.5852913 Z" id="Path" fill="#CA336B"></path>
            <path d="M364.093598,62.6256562 C365.103689,62.6256562 366.11378,62.6256562 367.123871,62.6256562 C367.123871,63.9721078 367.123871,65.3195695 367.123871,66.6660211 C366.11378,66.6660211 365.103689,66.6660211 364.093598,66.6660211 C364.093598,65.3195695 364.093598,63.9721078 364.093598,62.6256562 Z" id="Path" fill="#CD2D69"></path>
            <path d="M311.568854,79.7972071 C317.597078,78.5820674 321.468758,80.9396203 323.184903,86.8678457 C325.345488,85.5860399 327.533346,85.5860399 329.750496,86.8678457 C331.096947,90.2344798 331.096947,93.6021239 329.750496,96.968758 C332.656528,99.3535834 335.855487,101.373766 339.346363,103.029305 C340.020093,106.059579 340.020093,109.089853 339.346363,112.120126 C328.041422,123.279614 320.970783,136.747161 318.134447,152.523776 C316.704158,172.128636 314.683975,191.65673 312.073899,211.109067 C307.503237,228.86142 302.11642,246.370342 295.91244,263.633811 C293.050851,269.361028 289.684217,274.747845 285.811527,279.795271 C276.061117,287.526509 266.970296,295.944609 258.539064,305.047551 C253.95628,312.195967 249.915915,319.602966 246.417969,327.269558 C237.779669,376.637767 225.658574,425.122146 210.054685,472.722695 C209.380954,477.099421 209.380954,481.477156 210.054685,485.853881 C214.059697,501.092118 216.75361,516.579846 218.135415,532.318078 C218.809146,536.694803 218.809146,541.072539 218.135415,545.449264 C215.525339,564.712714 210.474883,583.231726 202.984047,601.004281 C197.542685,608.010274 192.997275,615.585958 189.347815,623.731334 C191.197292,628.617145 194.227566,632.65751 198.438636,635.852429 C202.313346,637.957459 206.017351,640.314002 209.54964,642.923067 C214.139494,644.699818 218.684905,646.552325 223.185871,648.478569 C226.123216,655.748196 226.459577,663.155195 224.195962,670.700576 C223.690917,671.205622 223.185871,671.710667 222.680826,672.215713 C220.491958,672.387429 218.3041,672.549043 216.115233,672.720759 C204.268883,670.538962 192.315463,669.023825 180.256994,668.175348 C169.428816,663.078428 158.822858,657.522926 148.43912,651.508843 C145.699753,648.724021 144.015931,645.356377 143.388664,641.407931 C142.840185,634.621128 142.840185,627.886849 143.388664,621.206106 C138.501843,624.585871 133.283711,627.278774 127.73225,629.286836 C124.887833,628.675731 122.19392,627.665639 119.65152,626.256562 C114.798032,628.77371 110.588982,632.140344 107.02538,636.357474 C105.527415,639.591787 105.190044,642.959431 106.015289,646.458387 C110.184945,652.25227 111.532407,658.649178 110.055653,665.65012 C105.823371,674.417712 98.9204078,677.6096 89.3487833,675.245987 C77.1266794,670.427852 70.223716,661.509756 68.6419131,648.478569 C68.3055527,642.081661 67.9681822,635.683744 67.6318219,629.286836 C65.6055789,623.889918 63.5853964,618.502092 61.5712745,613.125376 C61.7692524,595.815443 60.4228008,578.643892 57.5309096,561.610723 C51.058245,549.28054 47.859286,536.149354 47.9350429,522.217166 C33.8998253,527.69691 19.4211776,529.212047 4.50112003,526.762576 C-2.63315433,519.150529 -1.28670272,513.089981 8.54148494,508.580934 C22.1807468,504.876929 35.9856636,502.014331 49.9552253,499.995159 C51.6632896,480.754941 53.8511472,461.563207 56.5208183,442.419958 C60.0207844,430.909969 63.724789,419.461595 67.6318219,408.076857 C68.5560553,390.473997 74.6166027,374.986268 85.813464,361.61266 C93.9487387,345.407766 99.841611,328.403891 103.49006,310.603053 C99.9274687,300.644564 95.0456978,291.385057 88.8437377,282.825544 C79.048883,264.217644 71.641884,244.68955 66.6217306,224.240253 C64.2358951,207.986875 66.5934481,192.499146 73.6923692,177.776056 C74.7024605,176.765965 75.7125517,175.755874 76.7226429,174.745783 C81.3872442,155.830814 84.2488327,136.639081 85.3084184,117.170583 C87.6235475,116.911999 89.8124152,117.24836 91.8740114,118.180674 C95.4982187,124.417987 98.8658629,130.815905 101.974924,137.372407 C103.37693,136.307771 104.892067,136.140096 106.520334,136.867362 C108.754656,139.817838 110.606153,143.016797 112.075836,146.463228 C124.098952,140.849141 136.725092,138.997644 149.954257,140.907726 C162.579387,145.242028 175.373203,148.946032 188.337724,152.01873 C190.526591,155.554049 193.38818,158.415638 196.923499,160.604505 C201.071944,171.05895 199.724482,180.823502 192.883134,189.897151 C188.977112,194.141554 184.769071,198.013234 180.256994,201.5132 C182.753939,202.987933 185.447853,203.998025 188.337724,204.543474 C201.926481,206.244468 215.395038,208.60101 228.741373,211.614113 C235.160503,212.392893 240.88469,210.710081 245.912924,206.563656 C248.438152,204.038428 250.96338,201.5132 253.488608,198.987972 C261.628933,180.349769 270.047034,161.830756 278.740889,143.432955 C281.104502,138.362297 281.609548,133.144165 280.256026,127.776541 C280.734809,124.203848 281.40854,120.668529 282.276208,117.170583 C280.766122,109.349446 280.934807,101.605077 282.781254,93.9384843 C285.079211,92.1879962 287.268079,90.3354889 289.346847,88.3829826 C291.681168,88.5395467 294.03771,88.5395467 296.417485,88.3829826 C299.195236,82.1941536 303.740647,80.0052859 310.053717,81.8173896 C310.777952,81.2678999 311.282998,80.5941691 311.568854,79.7972071 Z M331.770678,106.059579 C333.280765,105.973721 334.290856,106.646442 334.800952,108.079762 C330.068675,112.979714 325.523264,118.03017 321.16472,123.23113 C318.536463,129.43208 316.516281,135.828988 315.104173,142.422863 C313.420351,159.933805 311.736529,177.442726 310.053717,194.947607 C308.963828,202.341475 307.112331,209.412114 304.498215,216.159523 C305.638608,192.447631 308.163836,168.879173 312.073899,145.453137 C314.427412,138.393609 316.783955,131.322971 319.144538,124.241221 C323.127328,117.937242 327.335368,111.876694 331.770678,106.059579 Z M91.3689657,128.281586 C90.2174617,136.891604 88.5336397,145.308694 86.3185096,153.533867 C87.0710276,144.396582 88.2487939,135.305761 89.8538289,126.261404 C90.1346343,127.186647 90.6396799,127.859368 91.3689657,128.281586 Z M271.165205,177.776056 C271.264194,179.849774 270.590463,181.533596 269.145022,182.826513 C269.046033,180.752795 269.719764,179.068973 271.165205,177.776056 Z M77.2276885,186.866877 C74.1307488,199.170799 73.4580281,211.628254 75.2075061,224.240253 C70.1146261,211.642395 70.7883569,199.18494 77.2276885,186.866877 Z M304.498215,216.159523 C304.432559,219.11707 303.758828,221.810983 302.478033,224.240253 C302.085107,221.156444 302.757828,218.462531 304.498215,216.159523 Z M290.356938,262.62372 C289.034728,265.934799 287.183231,268.965072 284.801436,271.714541 C283.661043,273.3721 282.145906,274.382192 280.256026,274.744814 C283.143876,270.322635 286.510511,266.28227 290.356938,262.62372 Z M275.205569,278.785179 C274.727796,280.205368 273.717705,280.879098 272.175296,280.805362 C272.653069,279.385173 273.66316,278.711443 275.205569,278.785179 Z M242.88265,312.11819 C242.791742,322.076679 240.939235,331.840221 237.327148,341.410836 C234.330208,365.498481 229.448437,389.06694 222.680826,412.117222 C227.257549,382.146805 232.47669,352.517799 238.33724,323.229193 C239.099858,319.108021 240.614995,315.405027 242.88265,312.11819 Z M88.3386921,367.673207 C81.9367338,381.501356 76.5499173,395.642634 72.1772324,410.097039 C73.0216687,394.078002 78.4084852,379.936725 88.3386921,367.673207 Z M66.116685,430.298864 C65.1490176,440.510886 62.7924748,450.275438 59.0460464,459.591509 C59.2389738,449.171408 61.5965268,439.407866 66.116685,430.298864 Z M204.499183,496.964885 C206.403205,504.2234 208.254703,511.630399 210.054685,519.186892 C210.88801,530.137291 210.720335,540.911934 209.54964,551.509811 C209.717315,533.144332 208.033493,514.96269 204.499183,496.964885 Z M47.9350429,517.166709 C35.7058684,521.999996 22.9110428,524.188864 9.55157617,523.732302 C8.98996545,523.345437 8.65360507,522.840392 8.54148494,522.217166 C12.6343746,521.509092 16.6747395,521.509092 20.6625797,522.217166 C28.8917929,520.118196 37.141208,518.098014 45.4098148,516.156618 C46.4906124,516.184901 47.3320184,516.521261 47.9350429,517.166709 Z M209.54964,553.529994 C209.315298,561.595572 207.968847,569.338931 205.509275,576.762092 C206.330479,568.797523 207.677941,561.054163 209.54964,553.529994 Z M100.459787,647.468478 C102.592089,651.567428 104.612272,655.776478 106.520334,660.094618 C104.790048,665.362244 101.423414,669.235944 96.4194219,671.710667 C100.102215,664.104681 101.448666,656.023951 100.459787,647.468478 Z M212.579913,650.498752 C217.688955,650.108856 220.550543,652.466409 221.165689,657.56939 C221.824268,660.694613 221.486898,663.724886 220.155597,666.660211 C219.477826,667.4198 218.63642,667.75717 217.630369,667.670303 C218.879852,660.937034 217.19603,655.212847 212.579913,650.498752 Z" id="Shape" fill="#070402" opacity="0.76"></path>
            <path d="M331.770678,106.059579 C327.335368,111.876694 323.127328,117.937242 319.144538,124.241221 C316.783955,131.322971 314.427412,138.393609 312.073899,145.453137 C308.163836,168.879173 305.638608,192.447631 304.498215,216.159523 C302.757828,218.462531 302.085107,221.156444 302.478033,224.240253 C301.507335,226.023064 301.169965,228.043246 301.467941,230.3008 C298.928572,240.950192 295.561938,251.388475 291.367029,261.613628 C290.693298,261.613628 290.356938,261.949989 290.356938,262.62372 C286.510511,266.28227 283.143876,270.322635 280.256026,274.744814 C279.582295,274.744814 279.245934,275.081175 279.245934,275.754906 C278.243924,275.58117 277.571203,275.91854 277.225752,276.764997 C276.552021,276.764997 276.215661,277.101357 276.215661,277.775088 C275.54193,277.775088 275.205569,278.111448 275.205569,278.785179 C273.66316,278.711443 272.653069,279.385173 272.175296,280.805362 C271.501565,280.805362 271.165205,281.141722 271.165205,281.815453 C270.491474,281.815453 270.155113,282.151813 270.155113,282.825544 C262.491551,287.793173 255.757273,293.85372 249.953289,301.007186 C249.106832,301.352638 248.769462,302.025358 248.943198,303.027369 C248.269467,303.027369 247.933106,303.363729 247.933106,304.03746 C246.529079,305.450578 245.518988,307.1344 244.902833,309.087916 C244.229102,309.087916 243.892741,309.424277 243.892741,310.098007 C243.046285,310.443459 242.708914,311.116179 242.88265,312.11819 C240.614995,315.405027 239.099858,319.108021 238.33724,323.229193 C232.47669,352.517799 227.257549,382.146805 222.680826,412.117222 C221.7374,413.195999 221.40003,414.542451 221.670734,416.157586 C220.727309,417.236364 220.389939,418.582816 220.660643,420.197951 C219.717218,421.276729 219.379847,422.62318 219.650552,424.238316 C218.689955,425.671636 218.353595,427.354448 218.640461,429.288772 C217.679864,430.722092 217.343504,432.404904 217.630369,434.339229 C214.582924,447.694655 210.374884,460.825841 205.004229,473.732787 C203.34869,481.432712 203.180004,489.177081 204.499183,496.964885 C208.033493,514.96269 209.717315,533.144332 209.54964,551.509811 C209.54964,552.183542 209.54964,552.856263 209.54964,553.529994 C207.677941,561.054163 206.330479,568.797523 205.509275,576.762092 C204.548678,578.195411 204.212318,579.878223 204.499183,581.812548 C203.555758,582.891326 203.218388,584.237777 203.489092,585.852913 C202.57597,586.569068 202.239609,587.579159 202.479001,588.883187 C197.502281,599.504296 191.94678,609.942579 185.812496,620.196015 C184.891292,624.187895 185.565023,627.8919 187.832678,631.307018 C194.177061,639.51401 202.090116,645.574557 211.569822,649.48866 C211.569822,650.162391 211.906182,650.498752 212.579913,650.498752 C217.19603,655.212847 218.879852,660.937034 217.630369,667.670303 C216.848559,668.326862 215.838468,668.660192 214.600096,668.680394 C203.833533,666.781422 193.05889,664.929925 182.277176,663.124892 C172.869187,658.446149 163.442005,653.732054 153.994622,648.983615 C151.333032,647.002826 149.480524,644.477598 148.43912,641.407931 C147.903772,635.443342 148.408817,629.55148 149.954257,623.731334 C149.756279,621.834383 149.419919,619.981875 148.944166,618.175832 C148.409828,613.303152 149.588604,608.926427 152.479485,605.044646 C153.794624,604.453743 154.9734,603.781022 156.014804,603.024464 C159.912746,585.749884 164.289472,568.578333 169.14599,551.509811 C168.347008,543.224033 169.020739,534.974618 171.166173,526.762576 C171.011629,524.524214 170.675269,522.335346 170.156082,520.196983 C170.818701,518.192962 171.491422,516.17278 172.176264,514.136436 C171.839904,513.462705 171.502533,512.789984 171.166173,512.116253 C164.652095,527.221157 154.887543,539.847298 141.873527,549.994674 C134.129158,555.550176 126.385798,561.105678 118.641429,566.66118 C120.235353,567.467232 121.918165,567.972278 123.691885,568.176316 C126.028226,578.660053 126.364586,589.266011 124.701976,599.99419 C123.423201,602.21033 123.423201,604.567883 124.701976,607.064829 C123.349464,611.785995 122.003013,616.500091 120.661611,621.206106 C119.357584,620.966714 118.347492,621.303075 117.631338,622.216197 C109.502123,625.463641 103.946622,631.186817 100.964832,639.387748 C100.462817,642.06045 100.294132,644.754363 100.459787,647.468478 C101.448666,656.023951 100.102215,664.104681 96.4194219,671.715132 C87.9154638,671.862181 81.3498708,668.157167 76.7226429,660.599664 C71.9226894,650.031079 69.9025069,638.920076 70.6620955,627.266653 C68.0671712,621.403074 66.0469887,615.342526 64.6015482,609.085011 C64.1520576,602.682043 64.3207428,596.284125 65.1065938,589.893278 C64.6924564,583.82566 64.1874108,577.765113 63.5914569,571.711636 C60.2995696,559.14105 56.5955651,546.682585 52.4804534,534.33826 C51.8067226,525.247439 51.8067226,516.156618 52.4804534,507.065797 C53.4986254,492.186143 55.3501226,477.371135 58.0359552,462.621783 C58.9490777,461.905628 59.285438,460.895537 59.0460464,459.591509 C62.7924748,450.275438 65.1490176,440.510886 66.116685,430.298864 C66.116685,429.962503 66.116685,429.625133 66.116685,429.288772 C67.0601102,428.209995 67.3974807,426.863543 67.1267762,425.248408 C68.7146397,422.50601 69.7247309,419.475736 70.1570499,416.157586 C71.0035064,415.812135 71.3408769,415.139415 71.1671412,414.137404 C72.1105664,413.058627 72.4479368,411.712175 72.1772324,410.097039 C76.5499173,395.642634 81.9367338,381.501356 88.3386921,367.673207 C98.3507163,346.845126 105.421355,324.96049 109.550608,302.017278 C109.381923,299.997095 109.214247,297.976913 109.045562,295.95673 C96.3456852,276.952874 86.0760877,256.751049 78.2377798,235.351256 C78.4771714,234.047229 78.140811,233.037137 77.2276885,232.320983 C77.498393,230.705847 77.1610225,229.359395 76.2175973,228.280618 C76.391333,227.278607 76.0539625,226.605887 75.2075061,226.260435 C75.2075061,225.586705 75.2075061,224.913984 75.2075061,224.240253 C73.4580281,211.628254 74.1307488,199.170799 77.2276885,186.866877 C77.2276885,186.530517 77.2276885,186.193147 77.2276885,185.856786 C78.074145,185.511335 78.4115155,184.838614 78.2377798,183.836604 C79.1509022,183.120449 79.4872626,182.110358 79.247871,180.80633 C80.0943274,180.460879 80.4316979,179.788158 80.2579622,178.786148 C81.218559,177.352828 81.5549194,175.670016 81.2680535,173.735691 C82.5488491,171.306422 83.22258,168.612509 83.2882359,165.654962 C84.2013584,164.938807 84.5377188,163.928716 84.2983271,162.624688 C85.2589239,161.191368 85.5952843,159.508556 85.3084184,157.574232 C86.2518436,156.495454 86.589214,155.149003 86.3185096,153.533867 C88.5336397,145.308694 90.2174617,136.891604 91.3689657,128.281586 C94.9628703,133.079519 97.993144,138.803706 100.459787,145.453137 C98.1052642,154.369212 95.2426656,163.123673 91.8740114,171.715509 C89.8730206,176.575058 90.0417059,181.289154 92.379057,185.856786 C93.3366235,176.636673 95.8618515,167.882213 99.9547412,159.594414 C100.393121,168.827658 101.739572,177.918479 103.995106,186.866877 C105.576909,190.639568 106.755685,190.639568 107.530425,186.866877 C104.487021,175.412443 103.8143,163.964069 105.510243,152.523776 C105.342568,159.938855 105.510243,167.345854 106.015289,174.745783 C106.703161,177.164951 107.545577,179.521494 108.540517,181.816421 C110.843525,175.746783 112.863707,169.518561 114.601064,163.129734 C114.107129,161.98025 113.770769,160.801473 113.590973,159.594414 C114.601064,159.594414 115.611155,159.594414 116.621246,159.594414 C116.054585,156.602524 115.044494,153.740936 113.590973,151.008639 C113.927333,150.503593 114.264704,149.998548 114.601064,149.493502 C118.755569,147.490491 123.132295,145.975354 127.73225,144.948091 C141.561409,142.748113 154.692595,144.768295 167.125808,151.008639 C170.415675,152.062164 173.782309,152.56721 177.22672,152.523776 C175.271184,154.284365 174.933813,156.304547 176.216629,158.584323 C180.053966,159.890371 183.75797,159.890371 187.327633,158.584323 C189.984172,160.733797 192.509401,163.09034 194.903317,165.654962 C195.551795,173.459937 193.531613,180.530575 188.842769,186.866877 C184.128674,191.580973 179.415588,196.294059 174.701492,201.008155 C174.213618,201.965721 174.045943,202.975812 174.196447,204.038428 C178.734786,206.131337 183.448882,207.983845 188.337724,209.59393 C196.4932,210.791898 204.57393,212.307035 212.579913,214.139341 C216.126344,215.315087 219.829338,216.325178 223.690917,217.169614 C224.769694,218.11304 226.116146,218.45041 227.731282,218.179706 C230.425195,219.526157 233.118098,219.526157 235.812012,218.179706 C237.427147,218.45041 238.773599,218.11304 239.852376,217.169614 C240.854387,217.34335 241.527108,217.00598 241.872559,216.159523 C242.874569,216.333259 243.54729,215.995888 243.892741,215.149432 C250.915906,211.157551 256.640093,205.769725 261.064292,198.987972 C261.910749,198.642521 262.248119,197.9698 262.074383,196.96779 C262.748114,196.96779 263.084475,196.631429 263.084475,195.957698 C263.997597,195.241544 264.333958,194.231453 264.094566,192.927425 C264.941022,192.581974 265.278393,191.909253 265.104657,190.907242 C265.951114,190.561791 266.288484,189.88907 266.114748,188.88706 C266.961205,188.541609 267.298575,187.868888 267.12484,186.866877 C267.971296,186.521426 268.308667,185.848705 268.134931,184.846695 C268.981387,184.501244 269.318758,183.828523 269.145022,182.826513 C270.590463,181.533596 271.264194,179.849774 271.165205,177.776056 C271.165205,177.439696 271.165205,177.102326 271.165205,176.765965 C272.011661,176.420514 272.349031,175.747793 272.175296,174.745783 C273.021752,174.400331 273.359123,173.727611 273.185387,172.7256 C274.031843,172.380149 274.369214,171.707428 274.195478,170.705418 C275.041935,170.359967 275.379305,169.687246 275.205569,168.685235 C276.052026,168.339784 276.389396,167.667063 276.215661,166.665053 C277.062117,166.319602 277.399488,165.646881 277.225752,164.64487 C278.072208,164.299419 278.409579,163.626698 278.235843,162.624688 C279.0823,162.279237 279.41967,161.606516 279.245934,160.604505 C280.159057,159.888351 280.495417,158.87826 280.256026,157.574232 C280.592386,157.574232 280.929756,157.574232 281.266117,157.574232 C281.515609,161.047936 281.179249,164.41457 280.256026,167.675144 C274.365174,180.46997 268.136951,193.263785 261.569338,206.058611 C255.411822,213.599952 247.499777,218.145362 237.832194,219.694842 C224.346466,220.759479 210.87892,222.10593 197.428545,223.735207 C196.503301,224.016013 195.83058,224.521058 195.408362,225.250344 C189.668014,226.007913 184.112512,227.354364 178.741857,229.290709 C177.985299,230.437163 178.152974,231.447254 179.246903,232.320983 C182.709495,230.578575 186.4135,229.399799 190.357906,228.785663 C206.217349,228.667483 222.042448,227.993752 237.832194,226.765481 C252.853261,225.527109 263.795579,218.288795 270.660159,205.04852 C280.003503,189.476953 285.053959,172.642773 285.811527,154.543958 C286.692327,135.670403 287.028687,116.81503 286.821619,97.9788492 C288.838771,96.7950223 290.690268,95.4485707 292.37712,93.9384843 C294.048821,94.6738307 295.731633,94.842516 297.427577,94.4435299 C298.984127,90.8577061 301.34067,87.8274324 304.498215,85.3527089 C307.051726,86.3011845 309.744629,86.9739053 312.578945,87.3728913 C313.52035,82.3325361 315.371847,81.8274905 318.134447,85.8577545 C318.410202,87.4749105 318.915247,88.9900474 319.649584,90.403165 C322.020268,90.7405355 324.377821,90.5718503 326.720222,89.8981194 C325.991946,93.248592 325.823261,96.6162362 326.215177,99.9990317 C328.570709,101.719217 330.422207,103.7394 331.770678,106.059579 Z M271.165205,177.776056 C271.264194,179.849774 270.590463,181.533596 269.145022,182.826513 C269.046033,180.752795 269.719764,179.068973 271.165205,177.776056 Z" id="Shape" fill="#F9B46F" opacity="0.994"></path>
            <path d="M113.590973,159.594414 C111.427357,157.306558 109.743535,154.612644 108.540517,151.513684 C107.707191,150.618744 106.6971,150.282383 105.510243,150.503593 C105.69408,148.391492 105.356709,146.37131 104.500152,144.443046 C105.173883,143.096594 105.846603,143.096594 106.520334,144.443046 C109.164753,149.393503 111.522306,154.443959 113.590973,159.594414 Z" id="Path" fill="#D99661"></path>
            <path d="M177.22672,152.523776 C180.068107,152.57226 182.76101,153.245991 185.30745,154.543958 C186.52461,155.631826 187.198341,156.978278 187.327633,158.584323 C183.75797,159.890371 180.053966,159.890371 176.216629,158.584323 C174.933813,156.304547 175.271184,154.284365 177.22672,152.523776 Z" id="Path" fill="#F55569" opacity="0.999"></path>
            <path d="M105.510243,150.503593 C106.6971,150.282383 107.707191,150.618744 108.540517,151.513684 C109.743535,154.612644 111.427357,157.306558 113.590973,159.594414 C113.770769,160.801473 114.107129,161.98025 114.601064,163.129734 C112.863707,169.518561 110.843525,175.746783 108.540517,181.816421 C107.545577,179.521494 106.703161,177.164951 106.015289,174.745783 C105.510243,167.345854 105.342568,159.938855 105.510243,152.523776 C105.510243,151.850045 105.510243,151.177324 105.510243,150.503593 Z" id="Path" fill="#F85C6A" opacity="0.999"></path>
            <path d="M161.065261,162.624688 C157.51479,163.176198 155.158247,161.492376 153.994622,157.574232 C157.51883,156.989389 159.876383,158.672201 161.065261,162.624688 Z" id="Path" fill="#E7E6E5"></path>
            <path d="M153.994622,157.574232 C155.158247,161.492376 157.51479,163.176198 161.065261,162.624688 C162.485449,163.102461 163.15918,164.112552 163.085443,165.654962 C161.27536,166.472125 159.255177,166.977171 157.024896,167.170098 C155.784504,168.675134 155.784504,170.190271 157.024896,171.715509 C154.767342,172.013486 152.747159,171.676115 150.964348,170.705418 C152.516858,167.106463 152.180498,163.738819 149.954257,160.604505 C150.723947,158.824725 152.071408,157.814633 153.994622,157.574232 Z" id="Path" fill="#151311" opacity="0.999"></path>
            <path d="M149.954257,160.604505 C152.180498,163.738819 152.516858,167.106463 150.964348,170.705418 C148.388616,170.317543 147.042164,168.802406 146.923983,166.160007 C147.038124,163.736798 148.048215,161.885301 149.954257,160.604505 Z" id="Path" fill="#EBE8E5"></path>
            <path d="M163.085443,165.654962 C164.420784,170.389259 162.400601,172.409442 157.024896,171.715509 C155.784504,170.190271 155.784504,168.675134 157.024896,167.170098 C159.255177,166.977171 161.27536,166.472125 163.085443,165.654962 Z" id="Path" fill="#EDE9E5"></path>
            <path d="M280.256026,167.675144 C278.129784,187.920403 269.711683,204.924278 255.003745,218.684751 C246.615947,222.248353 237.861487,224.268535 228.741373,224.745299 C217.63542,225.250344 206.524416,225.419029 195.408362,225.250344 C195.83058,224.521058 196.503301,224.016013 197.428545,223.735207 C210.87892,222.10593 224.346466,220.759479 237.832194,219.694842 C247.499777,218.145362 255.411822,213.599952 261.569338,206.058611 C268.136951,193.263785 274.365174,180.46997 280.256026,167.675144 Z" id="Path" fill="#BA844E"></path>
            <path d="M172.176264,168.685235 C173.46211,169.268058 173.46211,169.940779 172.176264,170.705418 C165.904608,174.185182 159.50669,177.04677 152.984531,179.291193 C159.312752,175.454867 165.70966,171.919547 172.176264,168.685235 Z" id="Path" fill="#493521"></path>
            <path d="M176.216629,174.745783 C176.393395,180.824512 175.215629,186.885059 172.68131,192.927425 C172.57222,186.628496 173.749986,180.567949 176.216629,174.745783 Z" id="Path" fill="#38291A"></path>
            <path d="M174.196447,171.715509 C175.171185,172.94883 175.002499,174.295282 173.691401,175.755874 C170.635875,179.315435 167.774287,183.01944 165.105625,186.866877 C164.074322,186.359812 163.905637,185.687091 164.60058,184.846695 C167.80863,180.439667 171.007589,176.062942 174.196447,171.715509 Z" id="Path" fill="#35271A"></path>
            <path d="M693.383338,248.482442 C695.043928,248.266283 696.559065,248.603653 697.928749,249.492534 C699.518633,253.680372 701.37013,257.720737 703.484251,261.613628 C703.385262,263.687346 704.058993,265.371168 705.504433,266.664085 C708.67915,272.553926 710.530647,278.950834 711.059935,285.855818 C712.080127,297.415302 711.406396,308.862666 709.039752,320.19892 C706.940783,325.318062 703.741824,329.526102 699.443886,332.82506 C703.322636,335.526044 706.68927,338.725003 709.544798,342.420927 C713.266984,348.527938 716.970989,354.588486 720.655802,360.602569 C729.217335,375.888279 733.59406,392.386099 733.786988,410.097039 C733.108206,412.452572 732.939521,414.810125 733.281942,417.167678 C739.069765,422.785805 744.625266,428.509992 749.948447,434.339229 C752.423171,436.489713 754.106993,439.183626 754.998903,442.419958 C760.133197,452.354206 765.520014,462.118758 771.160363,471.712604 C773.918922,475.573173 775.265374,479.950908 775.200728,484.84379 C775.200728,492.250789 775.200728,499.658798 775.200728,507.065797 C775.253253,509.493046 774.916892,511.849589 774.190637,514.136436 C773.574481,515.036427 773.238121,516.046518 773.180546,517.166709 C773.180546,517.50307 773.180546,517.84044 773.180546,518.176801 C773.12297,519.296992 772.78661,520.307083 772.170454,521.207074 C771.657328,524.941382 770.984607,528.645386 770.150272,532.318078 C768.392713,537.976609 767.046261,543.868471 766.109907,549.994674 C766.124048,551.393651 766.461419,552.571417 767.119998,553.529994 C765.896778,556.990566 764.381641,560.3572 762.574588,563.630906 C758.670585,567.417738 755.808997,571.794463 753.988812,576.762092 C751.64338,578.077231 750.296929,580.097413 749.948447,582.822639 C748.528259,583.300412 747.854528,584.310504 747.928265,585.852913 C746.581813,588.883187 745.234351,591.91346 743.8879,594.943734 C743.830325,596.063925 743.493964,597.074016 742.877809,597.974008 C742.877809,598.310368 742.877809,598.647739 742.877809,598.984099 C744.5485,606.202211 744.212139,613.27285 741.867717,620.196015 C739.886929,622.0263 737.530386,623.036391 734.797079,623.226288 C731.573878,623.824262 728.543604,625.003039 725.706258,626.761608 C722.647702,631.957517 719.112382,632.462563 715.1003,628.276745 C714.090209,625.920202 713.080117,623.562649 712.070026,621.206106 C710.525597,622.447508 709.34682,623.962645 708.534707,625.751517 C706.005438,626.45656 703.648896,627.297966 701.464068,628.276745 C698.770155,628.276745 696.077252,628.276745 693.383338,628.276745 C691.755071,626.460601 690.239935,624.440418 688.837928,622.216197 C687.75612,614.890006 688.597526,607.819367 691.363156,601.004281 C691.305581,599.88409 690.96922,598.873999 690.353065,597.974008 C690.85609,592.363961 690.014684,586.640784 687.827837,580.802457 C687.112692,579.912566 686.270276,579.239846 685.302609,578.782274 C685.078368,576.654012 684.068277,574.97019 682.272335,573.731818 C682.638998,573.041926 682.975358,572.368195 683.282426,571.711636 C682.946066,571.037905 682.608695,570.365184 682.272335,569.691453 C682.272335,569.017722 681.935975,568.681362 681.262244,568.681362 C675.828963,573.171218 670.273461,577.548953 664.595738,581.812548 C664.595738,589.219547 664.595738,596.627556 664.595738,604.034555 C664.246247,606.406249 663.06747,608.257747 661.060419,609.590057 C652.504946,613.064771 644.087856,612.896085 635.808138,609.085011 C634.371789,607.645631 632.687967,606.63554 630.757682,606.054738 C627.896094,599.828535 626.212272,593.262942 625.707226,586.357959 C625.711266,582.820619 626.721358,579.62166 628.7375,576.762092 C629.411231,575.07827 630.083951,573.395458 630.757682,571.711636 C619.614356,565.78442 611.365951,557.02996 606.010447,545.449264 C604.477129,552.084553 601.784225,558.1451 597.929717,563.630906 C597.255986,567.33491 597.255986,571.037905 597.929717,574.741909 C602.219575,581.260028 602.219575,587.993296 597.929717,594.943734 C598.893344,602.928505 596.705487,609.830459 591.364124,615.650604 C584.23389,616.921299 577.499612,619.110167 571.1623,622.216197 C569.604739,623.02528 567.921927,623.361641 566.111844,623.226288 C557.388696,616.679887 554.189737,607.926437 556.515977,596.963917 C558.058386,593.880108 559.573523,590.849834 561.061387,587.873095 C560.830076,581.60851 561.166437,575.211602 562.071479,568.681362 C561.921985,564.415747 560.911894,560.375382 559.041205,556.560267 C559.228072,555.465328 559.564432,554.455237 560.051296,553.529994 C557.481624,537.823075 556.471533,521.997976 557.021022,506.055706 C557.021022,502.689072 557.021022,499.321428 557.021022,495.954794 C557.689703,481.150897 558.194748,466.335888 558.536159,451.510779 C559.1008,447.787583 559.774531,444.083579 560.556342,440.399776 C562.668443,437.12708 564.51994,433.759436 566.111844,430.298864 C567.879503,429.128168 568.889594,427.444346 569.142117,425.248408 C571.378459,424.347406 572.38855,422.664594 572.172391,420.197951 C570.200693,410.531378 569.190602,400.767837 569.142117,390.905306 C562.545211,390.388139 556.148304,391.230555 549.950384,393.430534 C540.171691,396.501211 533.101052,393.639623 528.738468,384.844758 C528.266755,379.895311 528.939476,375.181216 530.75865,370.703481 C534.416191,369.044911 537.782825,367.024729 540.859563,364.642934 C541.883795,363.457087 543.230247,362.784366 544.899928,362.622751 C547.35647,361.360137 549.714023,359.845 551.970566,358.077341 C557.841217,355.74504 563.229043,356.586446 568.132026,360.602569 C569.128986,357.301591 569.465346,353.933947 569.142117,350.501657 C568.428993,344.365352 566.07245,338.978536 562.071479,334.340197 C560.111902,331.111945 558.76444,327.745311 558.031114,324.239285 C556.422038,310.376793 556.758399,296.571876 559.041205,282.825544 C567.168399,277.751856 575.585489,273.206445 584.293486,269.189313 C585.977308,268.515582 587.66012,268.515582 589.343942,269.189313 C590.10353,269.867084 590.440901,270.70849 590.354033,271.714541 C589.316669,273.425635 587.969208,274.772087 586.313668,275.754906 C582.398554,281.34475 583.408646,286.226521 589.343942,290.401228 C593.384307,291.41132 597.424672,292.421411 601.465037,293.431502 C602.554925,295.495118 604.238747,296.84157 606.515493,297.471867 C610.222528,298.025397 613.926532,298.530443 617.626496,298.987004 C626.502168,301.275871 635.592989,301.612231 644.898959,299.997095 C644.898959,297.303182 644.898959,294.610279 644.898959,291.916365 C644.898959,285.855818 644.898959,279.795271 644.898959,273.734723 C644.251491,269.772135 644.251491,265.899445 644.898959,262.118674 C645.909051,261.444943 646.919142,261.444943 647.929233,262.118674 C649.481743,263.8429 651.165565,265.358037 652.979689,266.664085 C653.947357,267.121656 654.789773,267.794377 655.504917,268.684267 C658.245295,266.268129 660.770523,263.574215 663.080602,260.603537 C664.553315,259.3086 665.900776,259.3086 667.120966,260.603537 C666.020977,264.217644 665.853302,267.921648 666.615921,271.714541 C666.996725,273.171092 667.838131,274.181183 669.141149,274.744814 C669.654275,276.495302 670.495681,276.831663 671.666377,275.754906 C673.964335,271.4802 676.489563,267.439835 679.242061,263.633811 C683.243033,257.948007 687.956118,252.897551 693.383338,248.482442 Z M651.969598,273.734723 C651.056476,274.450878 650.720115,275.460969 650.959507,276.764997 C649.835275,275.304405 649.66659,273.620583 650.454461,271.714541 C651.178697,272.26403 651.683742,272.937761 651.969598,273.734723 Z M579.243029,281.815453 C578.569299,280.805362 577.896578,279.795271 577.222847,278.785179 C577.729913,277.184185 578.740004,276.679139 580.253121,277.270042 C579.36424,278.639726 579.02687,280.154863 579.243029,281.815453 Z M704.494342,278.785179 C706.616544,285.2134 707.626635,291.947678 707.524616,298.987004 C707.672089,303.960693 706.998358,308.674789 705.504433,313.128281 C705.282213,307.200056 705.619584,301.307183 706.514524,295.451685 C704.942822,290.006283 704.270102,284.450781 704.494342,278.785179 Z M574.192573,279.795271 C573.7148,281.215459 572.704709,281.88919 571.1623,281.815453 C571.640073,280.395265 572.650164,279.721534 574.192573,279.795271 Z M569.142117,282.825544 C566.919917,284.605325 565.74114,286.962878 565.606798,289.896183 C565.102762,294.260787 564.934077,298.637512 565.101752,303.027369 C564.765392,303.027369 564.428021,303.027369 564.091661,303.027369 C563.759341,296.929448 564.095701,290.868901 565.101752,284.845727 C566.235075,283.704324 567.582536,283.030593 569.142117,282.825544 Z M579.243029,284.845727 C580.955134,287.266915 582.301586,289.959819 583.283394,292.926456 C582.609664,292.926456 581.936943,292.926456 581.263212,292.926456 C580.826853,291.704246 580.153122,290.694155 579.243029,289.896183 C579.243029,288.212361 579.243029,286.529549 579.243029,284.845727 Z M564.091661,317.168646 C563.912875,320.940327 564.249235,324.644331 565.101752,328.27965 C563.801765,326.894814 563.129044,325.042307 563.08157,322.724148 C563.08763,320.670632 563.423991,318.819135 564.091661,317.168646 Z M568.132026,368.683299 C565.175489,367.521694 562.145215,366.511603 559.041205,365.653025 C554.992759,366.666147 550.952394,367.676238 546.92011,368.683299 C549.79483,365.15505 553.498834,362.798507 558.031114,361.61266 C562.565413,362.514672 565.933057,364.871214 568.132026,368.683299 Z M717.625528,365.653025 C719.045716,366.130798 719.719447,367.140889 719.64571,368.683299 C718.225522,368.205526 717.551791,367.195434 717.625528,365.653025 Z M542.879745,370.703481 C540.222195,372.373162 537.529292,374.055974 534.799015,375.753937 C536.429303,372.451949 539.123216,370.768127 542.879745,370.703481 Z M721.665893,372.723664 C724.588087,377.984219 726.439584,383.707396 727.221395,389.895215 C728.324414,397.646655 728.997135,405.391024 729.241577,413.127313 C728.854712,412.565702 728.349666,412.229342 727.72644,412.117222 C727.563816,398.686038 725.543633,385.554852 721.665893,372.723664 Z M660.050328,393.935579 C662.051319,392.114385 664.240186,390.430563 666.615921,388.885123 C669.336097,383.826586 667.82096,380.627627 662.07051,379.289257 C658.583675,378.395326 655.216031,377.55392 651.969598,376.764029 C659.054378,375.813533 665.283611,377.833715 670.656286,382.824576 C671.050221,390.341675 667.514902,394.045679 660.050328,393.935579 Z M654.999872,394.945671 C653.304939,399.690069 650.612035,403.730434 646.919142,407.066765 C648.637307,402.255701 651.33122,398.215336 654.999872,394.945671 Z M728.736531,424.238316 C724.258797,421.628241 719.882072,418.765642 715.605345,415.652541 C708.917531,412.692974 702.184263,409.831385 695.403521,407.066765 C695.253017,406.004149 695.420692,404.994058 695.908566,404.036492 C708.813492,407.702113 719.75581,414.436391 728.736531,424.238316 Z M577.222847,407.066765 C579.090506,411.029353 579.426866,415.069718 578.232938,419.18786 C577.896578,415.147495 577.559207,411.10713 577.222847,407.066765 Z M646.919142,407.066765 C645.136331,410.045524 642.779788,410.718245 639.848503,409.086948 C642.143431,408.259683 644.500983,407.586962 646.919142,407.066765 Z M567.121935,439.389685 C566.485577,442.973488 565.475486,446.340122 564.091661,449.490597 C563.909845,445.666392 564.919936,442.299758 567.121935,439.389685 Z M564.091661,450.500688 C564.494687,461.496541 563.821967,472.271185 562.071479,482.823608 C562.397738,471.873209 563.071479,461.099576 564.091661,450.500688 Z M769.140181,487.874064 C769.748256,498.847695 769.24321,509.958698 767.625044,521.207074 C765.268501,533.328169 762.910948,545.449264 760.554405,557.570359 C759.50492,558.792569 758.326144,559.80266 757.019086,560.600632 C759.556435,547.082581 762.418023,533.615035 765.604861,520.196983 C766.496772,509.241534 767.675548,498.46689 769.140181,487.874064 Z M653.98978,521.207074 C658.577615,530.010019 656.893793,537.417018 648.939324,543.429081 C652.144344,536.266524 653.827156,528.859525 653.98978,521.207074 Z M711.564981,535.348352 C712.827595,535.426129 713.669001,536.099859 714.090209,537.368534 C718.53663,550.60679 719.546721,564.074336 717.120482,577.772183 C714.526568,564.805642 711.663969,551.843141 708.534707,538.883671 C709.589242,537.697824 710.599333,536.519047 711.564981,535.348352 Z M686.3127,565.651088 C687.932886,566.44603 688.606617,567.792482 688.332882,569.691453 C687.147035,568.667221 686.474314,567.320769 686.3127,565.651088 Z M633.787956,590.903369 C633.708159,593.702332 634.213204,596.395235 635.303093,598.984099 C636.799038,599.964898 637.641454,601.311349 637.828321,603.024464 C633.83846,600.606305 631.481918,597.070986 630.757682,592.418506 C631.795046,591.900329 632.805137,591.395284 633.787956,590.903369 Z M566.111844,591.91346 C564.529031,595.950795 563.518939,600.158835 563.08157,604.539601 C562.97349,606.783013 563.647221,608.634511 565.101752,610.095102 C566.420931,612.434474 567.767383,614.792027 569.142117,617.165741 C563.534091,614.560716 560.840177,610.015305 561.061387,603.52951 C561.296739,598.926524 562.980561,595.053834 566.111844,591.91346 Z M738.837444,595.953825 C738.718253,600.865899 739.054613,605.74868 739.847535,610.600148 C740.23541,613.369818 739.225319,615.221315 736.817261,616.15565 C736.817261,614.809198 736.817261,613.461737 736.817261,612.115285 C737.273823,606.561803 737.947553,601.174987 738.837444,595.953825 Z M695.403521,609.085011 C694.95302,613.702138 695.625741,618.078864 697.423703,622.216197 C694.608579,621.329337 693.262127,619.309155 693.383338,616.15565 C693.609599,613.549615 694.28333,611.192062 695.403521,609.085011 Z" id="Shape" fill="#0C0B09" opacity="0.857"></path>
            <path d="M693.383338,248.482442 C687.956118,252.897551 683.243033,257.948007 679.242061,263.633811 C679.083477,262.246956 679.252162,260.899494 679.747107,259.593446 C683.282426,256.058127 686.817745,252.522807 690.353065,248.987488 C691.310631,248.499614 692.320722,248.331939 693.383338,248.482442 Z" id="Path" fill="#CCD4CF" opacity="0.335"></path>
            <path d="M697.423703,263.633811 C699.066112,268.909517 701.086294,273.959973 703.484251,278.785179 C703.820611,278.785179 704.157982,278.785179 704.494342,278.785179 C704.270102,284.450781 704.942822,290.006283 706.514524,295.451685 C705.619584,301.307183 705.282213,307.200056 705.504433,313.128281 C705.504433,313.464641 705.504433,313.802012 705.504433,314.138372 C704.561008,315.21715 704.223637,316.563601 704.494342,318.178737 C703.432736,320.632249 702.086284,322.988792 700.453977,325.249376 C698.461067,327.915007 696.104524,330.27256 693.383338,332.320014 C690.585386,334.204845 689.070249,336.897748 688.837928,340.400744 C687.64299,341.644167 686.465224,341.644167 685.302609,340.400744 C677.45622,326.281689 671.395673,311.466681 667.120966,295.95673 C674.496653,284.193208 681.904662,272.408473 689.342973,260.603537 C690.578315,259.478296 691.924767,259.30961 693.383338,260.098492 C694.600498,261.488377 695.94695,262.666143 697.423703,263.633811 Z" id="Path" fill="#824F57" opacity="0.994"></path>
            <path d="M667.120966,260.603537 C667.657325,265.030767 668.330046,269.743853 669.141149,274.744814 C667.838131,274.181183 666.996725,273.171092 666.615921,271.714541 C665.853302,267.921648 666.020977,264.217644 667.120966,260.603537 Z" id="Path" fill="#CCD4CF" opacity="0.441"></path>
            <path d="M703.484251,261.613628 C704.929691,262.906545 705.603422,264.590367 705.504433,266.664085 C704.058993,265.371168 703.385262,263.687346 703.484251,261.613628 Z" id="Path" fill="#D2DAD5" opacity="0.667"></path>
            <path d="M652.979689,266.664085 C651.165565,265.358037 649.481743,263.8429 647.929233,262.118674 C646.919142,261.444943 645.909051,261.444943 644.898959,262.118674 C644.251491,265.899445 644.251491,269.772135 644.898959,273.734723 C644.275733,273.622603 643.770688,273.286243 643.383823,272.724632 C642.987867,270.009507 642.482821,267.315593 641.868686,264.643902 C643.234329,260.85202 645.927232,259.673243 649.949416,261.108583 C651.626167,262.611599 652.636258,264.463096 652.979689,266.664085 Z" id="Path" fill="#D3DBD6" opacity="0.434"></path>
            <path d="M649.949416,299.997095 C649.949416,298.313273 649.949416,296.630461 649.949416,294.946639 C650.945366,290.431531 651.281726,285.717435 650.959507,280.805362 C652.305958,279.45891 652.305958,278.111448 650.959507,276.764997 C650.720115,275.460969 651.056476,274.450878 651.969598,273.734723 C652.979689,275.081175 653.98978,275.081175 654.999872,273.734723 C656.001882,273.908459 656.674603,273.571088 657.020054,272.724632 C659.002863,271.249899 660.85436,269.566077 662.575556,267.674176 C663.999785,272.638774 666.188652,277.184185 669.141149,281.310407 C665.317954,290.272947 658.921046,296.502179 649.949416,299.997095 Z" id="Path" fill="#8E643B" opacity="0.956"></path>
            <path d="M697.423703,263.633811 C697.760064,263.633811 698.097434,263.633811 698.433795,263.633811 C698.260059,264.635821 698.597429,265.308542 699.443886,265.653993 C699.27015,266.656004 699.607521,267.328725 700.453977,267.674176 C700.280241,268.676186 700.617612,269.348907 701.464068,269.694358 C701.290333,270.696369 701.627703,271.369089 702.474159,271.714541 C702.234768,273.018568 702.571128,274.02866 703.484251,274.744814 C703.484251,276.091266 703.484251,277.438728 703.484251,278.785179 C701.086294,273.959973 699.066112,268.909517 697.423703,263.633811 Z" id="Path" fill="#B57E4D" opacity="0.337"></path>
            <path d="M590.354033,271.714541 C591.026754,274.424615 589.679292,275.771067 586.313668,275.754906 C587.969208,274.772087 589.316669,273.425635 590.354033,271.714541 Z" id="Path" fill="#C8D0CB" opacity="0.212"></path>
            <path d="M577.222847,278.785179 C577.896578,279.795271 578.569299,280.805362 579.243029,281.815453 C579.243029,282.825544 579.243029,283.835635 579.243029,284.845727 C579.243029,286.529549 579.243029,288.212361 579.243029,289.896183 C577.508703,286.517428 576.834972,282.814433 577.222847,278.785179 Z" id="Path" fill="#BF8953" opacity="0.463"></path>
            <path d="M576.212756,278.785179 C576.549116,278.785179 576.886487,278.785179 577.222847,278.785179 C576.834972,282.814433 577.508703,286.517428 579.243029,289.896183 C580.153122,290.694155 580.826853,291.704246 581.263212,292.926456 C577.556177,292.751711 575.030949,294.434523 573.687528,297.976913 C571.854212,303.293023 570.339075,308.679839 569.142117,314.138372 C568.135056,314.168675 567.461325,313.663629 567.121935,312.623235 C566.045177,309.498013 565.372457,306.300064 565.101752,303.027369 C564.934077,298.637512 565.102762,294.260787 565.606798,289.896183 C565.74114,286.962878 566.919917,284.605325 569.142117,282.825544 C570.144128,282.99928 570.816848,282.661909 571.1623,281.815453 C572.704709,281.88919 573.7148,281.215459 574.192573,279.795271 C575.194584,279.969006 575.867305,279.631636 576.212756,278.785179 Z" id="Path" fill="#F9DFD2" opacity="0.916"></path>
            <path d="M581.263212,292.926456 C581.720783,293.894124 582.393504,294.73654 583.283394,295.451685 C586.236901,296.449655 589.267175,297.122375 592.374215,297.471867 C594.102482,298.6163 594.607527,300.131437 593.889352,302.017278 C585.931854,310.982847 578.356169,320.242354 571.1623,329.794786 C569.865343,330.485689 568.686566,330.317004 567.62698,329.289741 C566.634061,324.017065 567.139106,318.966608 569.142117,314.138372 C570.339075,308.679839 571.854212,303.293023 573.687528,297.976913 C575.030949,294.434523 577.556177,292.751711 581.263212,292.926456 Z" id="Path" fill="#835158"></path>
            <path d="M696.413612,257.573263 C696.17422,258.877291 696.510581,259.887382 697.423703,260.603537 C697.423703,261.613628 697.423703,262.62372 697.423703,263.633811 C695.94695,262.666143 694.600498,261.488377 693.383338,260.098492 C691.924767,259.30961 690.578315,259.478296 689.342973,260.603537 C681.904662,272.408473 674.496653,284.193208 667.120966,295.95673 C671.395673,311.466681 677.45622,326.281689 685.302609,340.400744 C686.465224,341.644167 687.64299,341.644167 688.837928,340.400744 C689.070249,336.897748 690.585386,334.204845 693.383338,332.320014 C690.670233,340.104788 687.134914,347.511787 682.777381,354.542021 C683.058186,358.217743 683.058186,361.921748 682.777381,365.653025 C681.496585,369.325717 680.318818,373.029721 679.242061,376.764029 C679.569331,378.853907 680.411747,379.190268 681.767289,377.77412 C683.509697,374.56809 684.856148,371.201456 685.807654,367.673207 C688.171268,371.734784 689.518729,376.11151 689.848019,380.804393 C690.065189,393.291141 690.73892,405.748596 691.868202,418.177769 C692.066179,419.981792 692.907585,421.328243 694.39343,422.218134 C695.39746,417.212122 695.733821,412.161666 695.403521,407.066765 C702.184263,409.831385 708.917531,412.692974 715.605345,415.652541 C719.882072,418.765642 724.258797,421.628241 728.736531,424.238316 C728.736531,424.912047 729.072892,425.248408 729.746623,425.248408 C729.746623,425.922138 730.082983,426.258499 730.756714,426.258499 C730.756714,426.93223 731.093074,427.26859 731.766805,427.26859 C736.717262,430.694819 741.262673,434.735184 745.403037,439.389685 C754.95648,451.421891 762.700849,464.553077 768.635135,478.783243 C769.13816,481.795335 769.306846,484.825608 769.140181,487.874064 C767.675548,498.46689 766.496772,509.241534 765.604861,520.196983 C762.418023,533.615035 759.556435,547.082581 757.019086,560.600632 C756.172629,560.946083 755.835259,561.618804 756.008995,562.620815 C755.098902,563.418787 754.425172,564.428878 753.988812,565.651088 C753.315081,565.651088 752.978721,565.987449 752.978721,566.66118 C752.132264,567.006631 751.794894,567.679352 751.96863,568.681362 C751.294899,568.681362 750.958538,569.017722 750.958538,569.691453 C750.112082,570.036905 749.774712,570.709625 749.948447,571.711636 C749.101991,572.057087 748.76462,572.729808 748.938356,573.731818 C748.264625,573.731818 747.928265,574.068179 747.928265,574.741909 C747.081808,575.087361 746.744438,575.760081 746.918174,576.762092 C746.244443,576.762092 745.908082,577.098452 745.908082,577.772183 C745.061626,578.117634 744.724255,578.790355 744.897991,579.792366 C744.22426,579.792366 743.8879,580.128726 743.8879,580.802457 C743.041443,581.147908 742.704073,581.820629 742.877809,582.822639 C742.031352,583.168091 741.693982,583.840811 741.867717,584.842822 C740.954595,585.558976 740.618235,586.569068 740.857626,587.873095 C739.944504,588.58925 739.608143,589.599341 739.847535,590.903369 C738.886938,592.336689 738.550578,594.019501 738.837444,595.953825 C737.947553,601.174987 737.273823,606.561803 736.817261,612.115285 C735.101116,611.95367 733.417294,612.121346 731.766805,612.620331 C726.694127,615.15667 721.643671,617.681898 716.615437,620.196015 C715.469993,617.70513 715.301308,615.011217 716.110391,612.115285 C719.124503,597.707344 721.649731,583.229706 723.686075,568.681362 C726.213324,558.076414 727.223415,547.133086 726.716349,535.853397 C726.547664,528.614073 726.379989,521.37576 726.211303,514.136436 C725.824438,513.574825 725.319393,513.238465 724.696167,513.126344 C724.84364,510.659702 724.002234,509.985971 722.170938,511.106162 C718.378046,523.460588 710.802362,531.877678 699.443886,536.358443 C701.400432,532.771609 701.737803,529.068614 700.453977,525.247439 C696.17018,542.833128 687.41673,557.815811 674.191605,570.196499 C669.127008,572.303549 664.917957,575.502508 661.565465,579.792366 C660.549313,581.846891 660.044267,584.034749 660.050328,586.357959 C660.796785,590.223578 660.96547,594.095257 660.555373,597.974008 C658.023075,596.302307 655.160476,595.459891 651.969598,595.44878 C650.095879,593.57506 648.244382,591.723563 646.414096,589.893278 C643.835333,590.623574 641.646466,591.970025 639.848503,593.933643 C639.069723,591.547807 638.227307,589.190254 637.323275,586.863004 C636.302073,586.017558 635.123296,585.681197 633.787956,585.852913 C633.787956,585.516553 633.787956,585.179182 633.787956,584.842822 C634.701078,584.126667 635.037439,583.116576 634.798047,581.812548 C635.71117,581.096393 636.04753,580.086302 635.808138,578.782274 C641.210106,566.467242 648.11206,555.019878 656.515009,544.439173 C660.820017,536.204909 661.156378,527.787819 657.5251,519.186892 C656.758441,517.608119 655.579664,516.598028 653.98978,516.156618 C651.340311,508.928405 646.289855,504.21431 638.838412,502.015341 C636.619242,502.366853 634.767744,503.376944 633.28291,505.045615 C631.852621,510.010213 630.84253,515.060669 630.252637,520.196983 C629.663753,521.71414 628.822347,523.060592 627.727409,524.237348 C624.187039,521.036369 620.146674,518.679826 615.606314,517.166709 C610.262931,518.160639 606.896297,521.190913 605.505401,526.25753 C603.093304,526.983786 601.578167,528.666598 600.959991,531.307987 C600.759993,537.044295 600.759993,542.767472 600.959991,548.479538 C599.420612,553.915849 597.063059,558.966305 593.889352,563.630906 C593.215621,567.33491 593.215621,571.037905 593.889352,574.741909 C598.303451,581.016596 598.303451,587.414514 593.889352,593.933643 C593.654001,598.059866 593.148955,602.10023 592.374215,606.054738 C582.780369,604.271927 573.689548,605.618378 565.101752,610.095102 C563.647221,608.634511 562.97349,606.783013 563.08157,604.539601 C563.518939,600.158835 564.529031,595.950795 566.111844,591.91346 C567.024966,591.197306 567.361326,590.187214 567.121935,588.883187 C568.468386,580.466096 568.468386,572.047996 567.121935,563.630906 C561.114922,537.029143 559.4311,510.094051 562.071479,482.823608 C563.821967,472.271185 564.494687,461.496541 564.091661,450.500688 C564.091661,450.164328 564.091661,449.826957 564.091661,449.490597 C565.475486,446.340122 566.485577,442.973488 567.121935,439.389685 C569.108784,436.382643 571.128967,433.352369 573.182482,430.298864 C574.092574,429.500892 574.766305,428.4908 575.202665,427.26859 C576.049121,426.923139 576.386492,426.250418 576.212756,425.248408 C577.059212,424.902956 577.396583,424.230236 577.222847,423.228225 C578.166272,422.149448 578.503643,420.802996 578.232938,419.18786 C579.426866,415.069718 579.090506,411.029353 577.222847,407.066765 C577.544056,402.489032 577.207696,398.111297 576.212756,393.935579 C577.953143,392.622461 580.142011,391.94873 582.778349,391.915397 C584.967216,392.251757 587.155074,392.589128 589.343942,392.925488 C592.627748,398.48503 596.163068,403.872857 599.9499,409.086948 C601.430693,417.569694 604.124607,425.650424 608.03063,433.329137 C612.212407,438.087677 617.430539,439.602814 623.687044,437.874548 C627.119334,436.302846 630.149607,434.113978 632.777865,431.308955 C636.144499,426.258499 639.512143,421.208043 642.878777,416.157586 C649.955476,412.108131 655.679663,406.721314 660.050328,399.996127 C671.688599,397.965843 676.23401,391.232575 673.686559,379.794302 C667.958332,374.23476 661.056379,371.540847 652.979689,371.713572 C652.54232,369.020669 652.037274,366.327766 651.464552,363.632843 C644.770678,355.253126 637.700039,347.172396 630.252637,339.390653 C627.908215,333.352328 625.382987,327.460466 622.676952,321.714057 C621.330501,321.040326 619.983039,321.040326 618.636587,321.714057 C616.56186,325.128165 614.709353,328.663484 613.081086,332.320014 C610.931612,334.651305 608.406383,336.334117 605.505401,337.370471 C606.508422,329.104894 602.804418,324.559484 594.394398,323.734239 C590.10252,325.950379 585.725795,327.970562 581.263212,329.794786 C579.534946,330.93922 579.0299,332.454357 579.748075,334.340197 C581.936943,337.875516 584.798531,340.737105 588.333851,342.925972 C592.413609,342.974457 596.453974,342.469411 600.454945,341.410836 C597.101442,348.130972 592.050986,353.181429 585.303577,356.562204 C585.33388,355.555143 584.828834,354.881412 583.78844,354.542021 C581.12887,355.697566 578.603642,357.044017 576.212756,358.582386 C576.486491,353.114763 575.981445,347.727946 574.697619,342.420927 C572.065321,337.274512 568.867372,332.560416 565.101752,328.27965 C564.249235,324.644331 563.912875,320.940327 564.091661,317.168646 C564.091661,312.45455 564.091661,307.741465 564.091661,303.027369 C564.428021,303.027369 564.765392,303.027369 565.101752,303.027369 C565.372457,306.300064 566.045177,309.498013 567.121935,312.623235 C567.461325,313.663629 568.135056,314.168675 569.142117,314.138372 C567.139106,318.966608 566.634061,324.017065 567.62698,329.289741 C568.686566,330.317004 569.865343,330.485689 571.1623,329.794786 C578.356169,320.242354 585.931854,310.982847 593.889352,302.017278 C594.607527,300.131437 594.102482,298.6163 592.374215,297.471867 C589.267175,297.122375 586.236901,296.449655 583.283394,295.451685 C582.393504,294.73654 581.720783,293.894124 581.263212,292.926456 C581.936943,292.926456 582.609664,292.926456 583.283394,292.926456 C584.727825,293.973921 586.411647,294.647652 588.333851,294.946639 C591.506547,295.775924 594.874191,296.280969 598.434763,296.461776 C600.588277,298.94155 603.282191,300.624362 606.515493,301.512232 C622.278976,303.70514 638.103066,304.377861 653.98978,303.532414 C657.86045,300.633453 661.395769,297.434494 664.595738,293.936548 C672.172433,282.827564 679.243071,271.37919 685.807654,259.593446 C688.180358,257.051046 690.705587,254.694503 693.383338,252.522807 C694.591408,254.184407 695.601499,255.867219 696.413612,257.573263 Z M654.999872,394.945671 C653.304939,399.690069 650.612035,403.730434 646.919142,407.066765 C648.637307,402.255701 651.33122,398.215336 654.999872,394.945671 Z M646.919142,407.066765 C645.136331,410.045524 642.779788,410.718245 639.848503,409.086948 C642.143431,408.259683 644.500983,407.586962 646.919142,407.066765 Z M653.98978,521.207074 C658.577615,530.010019 656.893793,537.417018 648.939324,543.429081 C652.144344,536.266524 653.827156,528.859525 653.98978,521.207074 Z M711.564981,535.348352 C710.599333,536.519047 709.589242,537.697824 708.534707,538.883671 C711.663969,551.843141 714.526568,564.805642 717.120482,577.772183 C719.546721,564.074336 718.53663,550.60679 714.090209,537.368534 C713.669001,536.099859 712.827595,535.426129 711.564981,535.348352 Z M686.3127,565.651088 C687.932886,566.44603 688.606617,567.792482 688.332882,569.691453 C687.147035,568.667221 686.474314,567.320769 686.3127,565.651088 Z M633.787956,590.903369 C633.708159,593.702332 634.213204,596.395235 635.303093,598.984099 C636.799038,599.964898 637.641454,601.311349 637.828321,603.024464 C633.83846,600.606305 631.481918,597.070986 630.757682,592.418506 C631.795046,591.900329 632.805137,591.395284 633.787956,590.903369 Z" id="Shape" fill="#BD864F" opacity="0.994"></path>
            <path d="M644.898959,291.916365 C644.898959,294.610279 644.898959,297.303182 644.898959,299.997095 C635.592989,301.612231 626.502168,301.275871 617.626496,298.987004 C626.317321,299.193062 635.070772,298.856702 643.888868,297.976913 C643.590891,295.719359 643.928262,293.699176 644.898959,291.916365 Z" id="Path" fill="#CCD3CD" opacity="0.443"></path>
            <path d="M647.929233,321.209011 C653.09888,320.591845 657.812976,321.770622 662.07051,324.74433 C666.245217,327.906926 670.116897,331.442245 673.686559,335.350288 C674.181504,336.656336 674.350189,338.003798 674.191605,339.390653 C667.533084,342.489613 660.462445,344.509795 652.979689,345.4512 C645.433298,344.634037 640.719202,340.593672 638.838412,333.330106 C641.082835,328.7251 644.113108,324.684735 647.929233,321.209011 Z" id="Path" fill="#0B0806"></path>
            <path d="M224.701008,325.249376 C218.462685,330.967502 211.728406,336.186644 204.499183,340.90579 C197.778036,344.611815 190.707398,347.137043 183.287268,348.481474 C182.215561,345.922913 183.056967,343.902731 185.812496,342.420927 C186.148856,340.737105 186.486227,339.054293 186.822587,337.370471 C190.012455,334.888676 192.874043,332.027088 195.408362,328.784695 C204.414336,324.513019 213.842527,322.156476 223.690917,321.714057 C224.536363,322.735259 224.872724,323.914035 224.701008,325.249376 Z" id="Path" fill="#BD864F"></path>
            <path d="M652.979689,371.713572 C648.56458,373.262042 645.196936,376.123631 642.878777,380.299348 C640.522234,380.973079 638.164681,380.973079 635.808138,380.299348 C633.72331,375.362022 630.693036,371.152972 626.717317,367.673207 C626.380957,368.178253 626.043586,368.683299 625.707226,369.188344 C626.892063,371.865086 628.238515,374.390314 629.747591,376.764029 C626.935497,375.028692 624.578954,372.840834 622.676952,370.198436 C634.560676,356.954119 631.530402,349.883481 613.586131,348.98652 C599.268088,348.148144 594.722678,354.377377 599.9499,367.673207 C601.738771,368.485321 603.253908,369.664097 604.49531,371.208527 C603.658955,372.13276 602.648863,372.805481 601.465037,373.228709 C592.030784,372.052963 582.603603,370.537826 573.182482,368.683299 C573.031979,367.620683 573.199654,366.610591 573.687528,365.653025 C577.433956,362.405582 581.305636,359.375308 585.303577,356.562204 C592.050986,353.181429 597.101442,348.130972 600.454945,341.410836 C601.914527,339.832063 603.597339,338.485611 605.505401,337.370471 C608.406383,336.334117 610.931612,334.651305 613.081086,332.320014 C614.709353,328.663484 616.56186,325.128165 618.636587,321.714057 C619.983039,321.040326 621.330501,321.040326 622.676952,321.714057 C625.382987,327.460466 627.908215,333.352328 630.252637,339.390653 C637.700039,347.172396 644.770678,355.253126 651.464552,363.632843 C652.037274,366.327766 652.54232,369.020669 652.979689,371.713572 Z" id="Path" fill="#E6DEDC" opacity="0.998"></path>
            <path d="M605.505401,337.370471 C603.597339,338.485611 601.914527,339.832063 600.454945,341.410836 C596.453974,342.469411 592.413609,342.974457 588.333851,342.925972 C584.798531,340.737105 581.936943,337.875516 579.748075,334.340197 C579.0299,332.454357 579.534946,330.93922 581.263212,329.794786 C585.725795,327.970562 590.10252,325.950379 594.394398,323.734239 C602.804418,324.559484 606.508422,329.104894 605.505401,337.370471 Z" id="Path" fill="#0F0B08"></path>
            <path d="M649.949416,324.239285 C654.500887,323.256466 656.688744,324.940288 656.515009,329.289741 C654.611997,331.38669 652.423129,331.724061 649.949416,330.299832 C648.617105,328.247327 648.617105,326.227144 649.949416,324.239285 Z" id="Path" fill="#F0F0F0"></path>
            <path d="M224.701008,325.249376 C223.06466,329.433174 220.371757,332.968493 216.620278,335.855334 C207.00825,344.277474 195.897247,349.496616 183.287268,351.511748 C183.287268,350.501657 183.287268,349.491565 183.287268,348.481474 C190.707398,347.137043 197.778036,344.611815 204.499183,340.90579 C211.728406,336.186644 218.462685,330.967502 224.701008,325.249376 Z" id="Path" fill="#19120B"></path>
            <path d="M593.384307,327.269558 C595.100452,327.107944 596.784274,327.275619 598.434763,327.774604 C599.462026,328.83419 599.630711,330.012966 598.939808,331.309923 C593.97521,333.510912 592.122703,332.16446 593.384307,327.269558 Z" id="Path" fill="#EAEAEA"></path>
            <path d="M558.031114,324.239285 C558.76444,327.745311 560.111902,331.111945 562.071479,334.340197 C560.141194,334.26545 558.962418,333.255359 558.536159,331.309923 C558.034144,328.976612 557.866469,326.62007 558.031114,324.239285 Z" id="Path" fill="#CBCBC0" opacity="0.984"></path>
            <path d="M587.323759,333.330106 C591.021703,333.178592 592.031795,334.693729 590.354033,337.875516 C586.522757,338.367431 585.512666,336.852294 587.323759,333.330106 Z" id="Path" fill="#DFDFDF"></path>
            <path d="M658.030145,334.340197 C659.713967,334.340197 661.396779,334.340197 663.080602,334.340197 C663.080602,335.686649 663.080602,337.03411 663.080602,338.380562 C661.396779,338.380562 659.713967,338.380562 658.030145,338.380562 C658.030145,337.03411 658.030145,335.686649 658.030145,334.340197 Z" id="Path" fill="#E6E6E6"></path>
            <path d="M699.443886,338.380562 C699.443886,339.054293 699.780246,339.390653 700.453977,339.390653 C703.406474,342.953245 706.100387,346.657249 708.534707,350.501657 C709.305406,352.388507 710.315498,354.072329 711.564981,355.552113 C711.391245,356.554123 711.728615,357.226844 712.575072,357.572295 C712.575072,358.246026 712.911432,358.582386 713.585163,358.582386 C713.411427,359.584397 713.748798,360.257118 714.595254,360.602569 C714.421519,361.604579 714.758889,362.2773 715.605345,362.622751 C715.605345,363.296482 715.941706,363.632843 716.615437,363.632843 C716.441701,364.634853 716.779071,365.307574 717.625528,365.653025 C717.551791,367.195434 718.225522,368.205526 719.64571,368.683299 C719.471975,369.685309 719.809345,370.35803 720.655802,370.703481 C720.482066,371.705492 720.819436,372.378212 721.665893,372.723664 C725.543633,385.554852 727.563816,398.686038 727.72644,412.117222 C722.165888,408.772809 716.441701,405.573851 710.554889,402.521355 C705.308475,400.602182 699.921659,399.423405 694.39343,398.986036 C694.600498,391.194192 694.095453,383.449822 692.878293,375.753937 C690.586396,369.044911 688.397528,362.311643 686.3127,355.552113 C688.369246,348.406727 691.73588,342.00982 696.413612,336.360379 C697.441885,337.060373 698.451976,337.733093 699.443886,338.380562 Z" id="Path" fill="#8F663C" opacity="0.973"></path>
            <path d="M569.142117,350.501657 C569.465346,353.933947 569.128986,357.301591 568.132026,360.602569 C563.229043,356.586446 557.841217,355.74504 551.970566,358.077341 C549.714023,359.845 547.35647,361.360137 544.899928,362.622751 C551.247341,354.895553 558.823025,353.548092 567.62698,358.582386 C567.811827,355.688475 568.316873,352.995572 569.142117,350.501657 Z" id="Path" fill="#D6DFD9" opacity="0.426"></path>
            <path d="M540.859563,364.642934 C537.782825,367.024729 534.416191,369.044911 530.75865,370.703481 C533.155597,367.14493 536.523241,365.124747 540.859563,364.642934 Z" id="Path" fill="#D7E0DA" opacity="0.403"></path>
            <path d="M568.132026,368.683299 C578.399603,372.938813 589.174246,375.969087 600.454945,377.77412 C600.118585,380.468033 599.781214,383.160936 599.444854,385.85485 C602.144828,384.829607 604.670056,383.483155 607.020538,381.814485 C614.997229,383.30841 622.910283,384.992232 630.757682,386.864941 C631.767773,386.52858 632.441504,385.85485 632.777865,384.844758 C631.363737,382.284177 630.353646,379.590264 629.747591,376.764029 C631.758683,379.427639 633.778865,382.121552 635.808138,384.844758 C638.443466,384.107392 641.13738,383.602346 643.888868,383.329622 C646.132281,380.581163 648.825184,378.392296 651.969598,376.764029 C655.216031,377.55392 658.583675,378.395326 662.07051,379.289257 C667.82096,380.627627 669.336097,383.826586 666.615921,388.885123 C664.240186,390.430563 662.051319,392.114385 660.050328,393.935579 C658.116003,393.648714 656.433191,393.985074 654.999872,394.945671 C651.33122,398.215336 648.637307,402.255701 646.919142,407.066765 C644.500983,407.586962 642.143431,408.259683 639.848503,409.086948 C634.952591,409.753608 631.079901,408.069786 628.232454,404.036492 C627.348624,400.619353 626.338533,397.252719 625.20218,393.935579 C624.290068,392.72246 623.112302,391.880044 621.666861,391.410351 C600.606459,387.653822 579.394543,385.97101 558.031114,386.359895 C551.335219,389.703297 544.26458,390.713388 536.819198,389.390169 C532.577825,385.122533 531.904094,380.577123 534.799015,375.753937 C537.529292,374.055974 540.222195,372.373162 542.879745,370.703481 C543.881756,370.877217 544.554477,370.539846 544.899928,369.69339 C545.901938,369.867126 546.574659,369.529755 546.92011,368.683299 C550.952394,367.676238 554.992759,366.666147 559.041205,365.653025 C562.145215,366.511603 565.175489,367.521694 568.132026,368.683299 Z" id="Path" fill="#FAF0DF" opacity="0.956"></path>
            <path d="M619.646679,371.713572 C621.306259,374.211528 623.495126,376.23171 626.212272,377.77412 C628.688005,380.329651 628.18296,381.676102 624.697135,381.814485 C617.77397,379.790262 610.703331,378.611485 603.485219,378.279165 C603.023607,377.860988 602.686237,377.355942 602.475128,376.764029 C604.140768,375.604444 605.655905,374.257992 607.020538,372.723664 C611.69423,377.059985 615.90227,376.722615 619.646679,371.713572 Z" id="Path" fill="#ECE3D3" opacity="0.998"></path>
            <path d="M720.655802,360.602569 C725.361817,365.283332 728.560776,371.007519 730.251668,377.77412 C732.990026,390.759853 734.672838,403.891039 735.302124,417.167678 C739.67885,421.544403 744.056585,425.922138 748.43331,430.298864 C749.232293,431.556427 749.737338,432.902879 749.948447,434.339229 C744.625266,428.509992 739.069765,422.785805 733.281942,417.167678 C732.939521,414.810125 733.108206,412.452572 733.786988,410.097039 C733.59406,392.386099 729.217335,375.888279 720.655802,360.602569 Z" id="Path" fill="#D8E0DB" opacity="0.403"></path>
            <path d="M528.738468,384.844758 C533.101052,393.639623 540.171691,396.501211 549.950384,393.430534 C556.148304,391.230555 562.545211,390.388139 569.142117,390.905306 C569.190602,400.767837 570.200693,410.531378 572.172391,420.197951 C572.38855,422.664594 571.378459,424.347406 569.142117,425.248408 C569.39565,423.561555 570.069381,422.046418 571.1623,420.702997 C568.760303,411.648539 567.412841,402.390043 567.121935,392.925488 C556.430119,394.585068 545.655476,395.090114 534.799015,394.440625 C530.602086,392.61135 528.581904,389.413401 528.738468,384.844758 Z" id="Path" fill="#CFD8D2" opacity="0.432"></path>
            <path d="M623.687044,408.076857 C624.697135,408.413217 625.370866,409.086948 625.707226,410.097039 C627.043577,412.305099 629.063759,413.820235 631.767773,414.64245 C630.023346,417.575755 629.350625,420.773703 629.747591,424.238316 C628.684975,424.087813 627.674884,424.255488 626.717317,424.743362 C626.092071,426.518092 624.913294,427.696869 623.181998,428.278681 C620.045665,427.402932 616.846706,427.065562 613.586131,427.26859 C613.804311,425.065581 612.962905,423.382769 611.060903,422.218134 C610.724543,419.18786 610.387172,416.157586 610.050812,413.127313 C608.526584,412.531359 607.011447,411.858638 605.505401,411.10713 C604.899347,408.22938 603.552895,405.872838 601.465037,404.036492 C599.356976,402.940543 598.010525,401.257731 597.424672,398.986036 C597.219623,397.426455 596.545892,396.078993 595.404489,394.945671 C603.533703,393.83558 611.614433,394.171941 619.646679,395.955762 C619.211329,400.710261 620.557781,404.750626 623.687044,408.076857 Z" id="Path" fill="#9D5B6A"></path>
            <path d="M623.687044,408.076857 C620.557781,404.750626 619.211329,400.710261 619.646679,395.955762 C611.614433,394.171941 603.533703,393.83558 595.404489,394.945671 C596.545892,396.078993 597.219623,397.426455 597.424672,398.986036 C595.150956,397.323425 593.467134,395.134558 592.374215,392.420443 C601.541803,391.852771 610.632625,392.526502 619.646679,394.440625 C621.131513,398.930481 622.478974,403.475891 623.687044,408.076857 Z" id="Path" fill="#B2A5A6"></path>
            <path d="M601.465037,404.036492 C603.552895,405.872838 604.899347,408.22938 605.505401,411.10713 C607.011447,411.858638 608.526584,412.531359 610.050812,413.127313 C610.387172,416.157586 610.724543,419.18786 611.060903,422.218134 C612.962905,423.382769 613.804311,425.065581 613.586131,427.26859 C616.846706,427.065562 620.045665,427.402932 623.181998,428.278681 C624.913294,427.696869 626.092071,426.518092 626.717317,424.743362 C627.674884,424.255488 628.684975,424.087813 629.747591,424.238316 C629.350625,420.773703 630.023346,417.575755 631.767773,414.64245 C629.063759,413.820235 627.043577,412.305099 625.707226,410.097039 C628.592047,411.706114 631.62232,413.053576 634.798047,414.137404 C635.956622,416.425261 636.125307,418.781803 635.303093,421.208043 C633.787956,423.564585 632.272819,425.922138 630.757682,428.278681 C623.351693,429.427155 615.943684,429.427155 608.535675,428.278681 C605.925599,420.281789 603.568046,412.201059 601.465037,404.036492 Z" id="Path" fill="#E5D9CD"></path>
            <path d="M569.142117,425.248408 C568.889594,427.444346 567.879503,429.128168 566.111844,430.298864 C566.364366,428.102925 567.374458,426.419103 569.142117,425.248408 Z" id="Path" fill="#DEE6E0" opacity="0.549"></path>
            <path d="M754.998903,442.419958 C759.263509,447.222942 762.798828,452.609759 765.604861,458.581418 C768.032111,462.758145 769.884618,467.134871 771.160363,471.712604 C765.520014,462.118758 760.133197,452.354206 754.998903,442.419958 Z" id="Path" fill="#D5DED8" opacity="0.984"></path>
            <path d="M566.111844,430.298864 C564.51994,433.759436 562.668443,437.12708 560.556342,440.399776 C559.774531,444.083579 559.1008,447.787583 558.536159,451.510779 C558.194748,466.335888 557.689703,481.150897 557.021022,495.954794 C556.348302,491.92857 556.011941,487.71952 556.010931,483.328653 C556.486684,471.374224 556.99173,459.421814 557.526068,447.470415 C557.736167,440.315938 560.598766,434.591751 566.111844,430.298864 Z" id="Path" fill="#D2DAD5" opacity="0.368"></path>
            <path d="M775.200728,484.84379 C775.823954,484.95591 776.329,485.292271 776.715865,485.853881 C777.669391,493.177043 777.164345,500.247681 775.200728,507.065797 C775.200728,499.658798 775.200728,492.250789 775.200728,484.84379 Z" id="Path" fill="#CBD3CD" opacity="0.432"></path>
            <path d="M653.98978,516.156618 C652.917064,517.771754 652.917064,519.455576 653.98978,521.207074 C653.827156,528.859525 652.144344,536.266524 648.939324,543.429081 C648.265593,543.429081 647.929233,543.765442 647.929233,544.439173 C645.942384,547.446214 643.922201,550.476488 641.868686,553.529994 C641.022229,553.875445 640.684859,554.548166 640.858594,555.550176 C640.184864,555.550176 639.848503,555.886536 639.848503,556.560267 C639.002047,556.905719 638.664676,557.578439 638.838412,558.58045 C637.991956,558.925901 637.654585,559.598622 637.828321,560.600632 C636.981864,560.946083 636.644494,561.618804 636.81823,562.620815 C636.144499,562.620815 635.808138,562.957175 635.808138,563.630906 C634.961682,563.976357 634.624311,564.649078 634.798047,565.651088 C618.563861,557.47642 608.800319,544.345234 605.505401,526.25753 C606.896297,521.190913 610.262931,518.160639 615.606314,517.166709 C620.146674,518.679826 624.187039,521.036369 627.727409,524.237348 C628.822347,523.060592 629.663753,521.71414 630.252637,520.196983 C630.84253,515.060669 631.852621,510.010213 633.28291,505.045615 C634.767744,503.376944 636.619242,502.366853 638.838412,502.015341 C646.289855,504.21431 651.340311,508.928405 653.98978,516.156618 Z" id="Path" fill="#90663C" opacity="0.987"></path>
            <path d="M48.9451341,513.126344 C48.7077627,512.52332 48.2027171,512.18696 47.4299973,512.116253 C34.9725421,515.653593 22.3464018,516.663684 9.55157617,515.146527 C22.869629,511.874841 36.3371754,508.844568 49.9552253,506.055706 C50.2602729,508.640529 49.9229024,510.998082 48.9451341,513.126344 Z" id="Path" fill="#B7824D"></path>
            <path d="M48.9451341,513.126344 C49.2158386,514.74148 48.8784681,516.087932 47.9350429,517.166709 C47.3320184,516.521261 46.4906124,516.184901 45.4098148,516.156618 C37.141208,518.098014 28.8917929,520.118196 20.6625797,522.217166 C16.6747395,521.509092 12.6343746,521.509092 8.54148494,522.217166 C2.99305382,521.403032 2.31932297,519.214164 6.52130249,515.651573 C7.47886897,515.163698 8.4889602,514.996023 9.55157617,515.146527 C22.3464018,516.663684 34.9725421,515.653593 47.4299973,512.116253 C48.2027171,512.18696 48.7077627,512.52332 48.9451341,513.126344 Z" id="Path" fill="#F6B26E" opacity="0.849"></path>
            <path d="M724.696167,513.126344 C725.319393,513.238465 725.824438,513.574825 726.211303,514.136436 C726.379989,521.37576 726.547664,528.614073 726.716349,535.853397 C727.223415,547.133086 726.213324,558.076414 723.686075,568.681362 C723.973951,557.738034 722.796185,546.963391 720.150756,536.358443 C719.546721,533.522107 718.367945,530.996879 716.615437,528.782759 C720.377016,524.028259 723.06992,518.809118 724.696167,513.126344 Z" id="Path" fill="#8D653C"></path>
            <path d="M774.190637,514.136436 C775.589613,515.598038 775.253253,516.608129 773.180546,517.166709 C773.238121,516.046518 773.574481,515.036427 774.190637,514.136436 Z" id="Path" fill="#C2CAC5" opacity="0.345"></path>
            <path d="M773.180546,518.176801 C774.579522,519.638403 774.243161,520.648494 772.170454,521.207074 C772.78661,520.307083 773.12297,519.296992 773.180546,518.176801 Z" id="Path" fill="#D9E2DC" opacity="0.108"></path>
            <path d="M170.156082,520.196983 C170.675269,522.335346 171.011629,524.524214 171.166173,526.762576 C169.020739,534.974618 168.347008,543.224033 169.14599,551.509811 C167.292473,552.138088 166.113697,553.48555 165.610671,555.550176 C161.215764,567.725816 157.84913,580.183271 155.509759,592.923552 C154.693605,596.486143 154.86229,599.852777 156.014804,603.024464 C154.9734,603.781022 153.794624,604.453743 152.479485,605.044646 C149.588604,608.926427 148.409828,613.303152 148.944166,618.175832 C148.272455,616.287972 147.599734,614.267789 146.923983,612.115285 C141.650297,616.876855 135.92611,621.085905 129.752432,624.741425 C125.883783,623.68487 121.843418,622.842454 117.631338,622.216197 C118.347492,621.303075 119.357584,620.966714 120.661611,621.206106 C122.003013,616.500091 123.349464,611.785995 124.701976,607.064829 C123.423201,604.567883 123.423201,602.21033 124.701976,599.99419 C124.540362,601.710335 124.708037,603.394157 125.207022,605.044646 C128.106994,598.854807 129.28577,592.289214 128.742341,585.347867 C128.923148,578.218643 128.081742,571.31568 126.217113,564.640997 C141.259392,554.985535 154.390578,543.201811 165.610671,529.287804 C167.172272,526.164602 168.687409,523.134328 170.156082,520.196983 Z" id="Path" fill="#BB854F"></path>
            <path d="M770.150272,532.318078 C770.698751,532.378683 771.035112,532.715044 771.160363,533.328169 C769.677549,540.068508 768.331098,546.801776 767.119998,553.529994 C766.461419,552.571417 766.124048,551.393651 766.109907,549.994674 C767.046261,543.868471 768.392713,537.976609 770.150272,532.318078 Z" id="Path" fill="#D0D8D3" opacity="0.426"></path>
            <path d="M698.433795,623.226288 C698.433795,622.552558 698.097434,622.216197 697.423703,622.216197 C695.625741,618.078864 694.95302,613.702138 695.403521,609.085011 C696.839871,598.628547 695.829779,588.527635 692.373247,578.782274 C692.546983,577.780264 692.209612,577.107543 691.363156,576.762092 C691.536892,575.760081 691.199521,575.087361 690.353065,574.741909 C690.592456,573.437882 690.256096,572.42779 689.342973,571.711636 C689.516709,570.709625 689.179339,570.036905 688.332882,569.691453 C688.606617,567.792482 687.932886,566.44603 686.3127,565.651088 C686.486435,564.649078 686.149065,563.976357 685.302609,563.630906 C690.111653,557.049151 694.152018,549.978513 697.423703,542.41899 C699.245908,541.138194 701.26609,540.464464 703.484251,540.398808 C710.740746,566.548049 712.592243,593.146782 709.039752,620.196015 C706.511494,624.296985 702.976175,625.307076 698.433795,623.226288 Z" id="Path" fill="#8E653B" opacity="0.98"></path>
            <path d="M557.021022,506.055706 C556.471533,521.997976 557.481624,537.823075 560.051296,553.529994 C555.788711,540.64123 554.273574,527.173683 555.505886,513.126344 C555.693763,510.564753 556.198808,508.20821 557.021022,506.055706 Z" id="Path" fill="#C3CBC6" opacity="0.446"></path>
            <path d="M170.156082,520.196983 C168.687409,523.134328 167.172272,526.164602 165.610671,529.287804 C154.390578,543.201811 141.259392,554.985535 126.217113,564.640997 C128.081742,571.31568 128.923148,578.218643 128.742341,585.347867 C129.28577,592.289214 128.106994,598.854807 125.207022,605.044646 C124.708037,603.394157 124.540362,601.710335 124.701976,599.99419 C126.364586,589.266011 126.028226,578.660053 123.691885,568.176316 C121.918165,567.972278 120.235353,567.467232 118.641429,566.66118 C126.385798,561.105678 134.129158,555.550176 141.873527,549.994674 C154.887543,539.847298 164.652095,527.221157 171.166173,512.116253 C171.502533,512.789984 171.839904,513.462705 172.176264,514.136436 C171.491422,516.17278 170.818701,518.192962 170.156082,520.196983 Z" id="Path" fill="#1A130C" opacity="0.999"></path>
            <path d="M169.14599,551.509811 C164.289472,568.578333 159.912746,585.749884 156.014804,603.024464 C154.86229,599.852777 154.693605,596.486143 155.509759,592.923552 C157.84913,580.183271 161.215764,567.725816 165.610671,555.550176 C166.113697,553.48555 167.292473,552.138088 169.14599,551.509811 Z" id="Path" fill="#1A130C" opacity="0.999"></path>
            <path d="M712.575072,532.318078 C714.710405,533.186756 715.888171,534.870578 716.110391,537.368534 C720.719437,554.893617 720.719437,572.401528 716.110391,589.893278 C714.501316,572.221732 711.302357,554.882506 706.514524,537.87358 C708.767028,536.248343 710.78721,534.395836 712.575072,532.318078 Z M711.564981,535.348352 C710.599333,536.519047 709.589242,537.697824 708.534707,538.883671 C711.663969,551.843141 714.526568,564.805642 717.120482,577.772183 C719.546721,564.074336 718.53663,550.60679 714.090209,537.368534 C713.669001,536.099859 712.827595,535.426129 711.564981,535.348352 Z" id="Shape" fill="#D5DDD7" opacity="0.426"></path>
            <path d="M630.757682,571.711636 C620.207279,567.733897 612.294225,560.663258 607.020538,550.49972 C605.426614,555.277451 603.069061,559.655187 599.9499,563.630906 C599.276169,567.33491 599.276169,571.037905 599.9499,574.741909 C601.663014,576.822697 602.841791,579.17924 603.485219,581.812548 C602.683207,587.080174 601.16807,592.13063 598.939808,596.963917 C599.247886,603.440621 597.901435,609.501169 594.899444,615.145559 C593.987331,616.358678 592.809565,617.201094 591.364124,617.670787 C584.682371,619.510163 577.948093,621.0253 571.1623,622.216197 C577.499612,619.110167 584.23389,616.921299 591.364124,615.650604 C596.705487,609.830459 598.893344,602.928505 597.929717,594.943734 C602.219575,587.993296 602.219575,581.260028 597.929717,574.741909 C597.255986,571.037905 597.255986,567.33491 597.929717,563.630906 C601.784225,558.1451 604.477129,552.084553 606.010447,545.449264 C611.365951,557.02996 619.614356,565.78442 630.757682,571.711636 Z" id="Path" fill="#D2DBD5" opacity="0.478"></path>
            <path d="M685.302609,578.782274 C686.270276,579.239846 687.112692,579.912566 687.827837,580.802457 C690.014684,586.640784 690.85609,592.363961 690.353065,597.974008 C689.800545,591.391243 688.116723,584.993325 685.302609,578.782274 Z" id="Path" fill="#DAE0D9" opacity="0.337"></path>
            <path d="M753.988812,576.762092 C753.140336,579.138837 751.792874,581.159019 749.948447,582.822639 C750.296929,580.097413 751.64338,578.077231 753.988812,576.762092 Z" id="Path" fill="#D8E1DB" opacity="0.208"></path>
            <path d="M681.262244,568.681362 C681.935975,568.681362 682.272335,569.017722 682.272335,569.691453 C682.608695,570.365184 682.946066,571.037905 683.282426,571.711636 C682.276375,571.798504 681.434969,571.461133 680.757198,570.701545 C676.332998,574.790394 671.619913,578.494398 666.615921,581.812548 C666.27956,589.893278 665.94219,597.974008 665.60583,606.054738 C664.891695,607.651692 664.050289,609.166829 663.080602,610.600148 C655.591785,614.27789 647.848426,614.951621 639.848503,612.620331 C638.006097,611.95367 636.659645,610.774894 635.808138,609.085011 C644.087856,612.896085 652.504946,613.064771 661.060419,609.590057 C663.06747,608.257747 664.246247,606.406249 664.595738,604.034555 C664.595738,596.627556 664.595738,589.219547 664.595738,581.812548 C670.273461,577.548953 675.828963,573.171218 681.262244,568.681362 Z" id="Path" fill="#D6DED8" opacity="0.467"></path>
            <path d="M628.7375,576.762092 C626.721358,579.62166 625.711266,582.820619 625.707226,586.357959 C626.212272,593.262942 627.896094,599.828535 630.757682,606.054738 C629.358706,604.9699 628.180939,603.623448 627.222363,602.014373 C624.148655,594.759897 623.474924,587.352898 625.20218,579.792366 C625.628439,577.84693 626.807215,576.836839 628.7375,576.762092 Z" id="Path" fill="#D8E1DB" opacity="0.391"></path>
            <path d="M749.948447,582.822639 C750.022184,584.365049 749.348453,585.37514 747.928265,585.852913 C747.854528,584.310504 748.528259,583.300412 749.948447,582.822639 Z" id="Path" fill="#DFE8E2" opacity="0.212"></path>
            <path d="M637.828321,603.024464 C637.641454,601.311349 636.799038,599.964898 635.303093,598.984099 C634.213204,596.395235 633.708159,593.702332 633.787956,590.903369 C633.655634,590.018529 633.991994,589.344798 634.798047,588.883187 C635.773795,597.849767 639.4778,599.197228 645.909051,592.923552 C647.406006,594.926563 649.089828,596.77806 650.959507,598.479053 C652.979689,598.479053 654.999872,598.479053 657.020054,598.479053 C658.366506,600.162875 659.713967,601.845687 661.060419,603.52951 C657.743279,607.219373 653.534229,608.73451 648.434279,608.07492 C643.511094,609.128445 639.975775,607.445633 637.828321,603.024464 Z" id="Path" fill="#8D643B" opacity="0.956"></path>
            <path d="M743.8879,594.943734 C745.286876,596.405336 744.950516,597.415427 742.877809,597.974008 C743.493964,597.074016 743.830325,596.063925 743.8879,594.943734 Z" id="Path" fill="#E4EEE7" opacity="0.275"></path>
            <path d="M561.061387,587.873095 C559.573523,590.849834 558.058386,593.880108 556.515977,596.963917 C554.189737,607.926437 557.388696,616.679887 566.111844,623.226288 C558.274546,620.384902 554.401856,614.661725 554.495794,606.054738 C553.754387,601.482055 554.428118,597.104319 556.515977,592.923552 C557.178597,590.412465 558.693734,588.728643 561.061387,587.873095 Z" id="Path" fill="#D2DAD5" opacity="0.403"></path>
            <path d="M742.877809,598.984099 C743.607095,599.406317 744.11214,600.079038 744.392945,601.004281 C744.66567,604.916365 745.170716,608.788044 745.908082,612.620331 C745.669701,615.862723 744.323249,618.387951 741.867717,620.196015 C744.212139,613.27285 744.5485,606.202211 742.877809,598.984099 Z" id="Path" fill="#E0E9E3" opacity="0.5"></path>
            <path d="M592.374215,606.054738 C592.275227,608.685015 591.09645,610.705198 588.838896,612.115285 C582.291485,613.862743 575.725892,615.545555 569.142117,617.165741 C567.767383,614.792027 566.420931,612.434474 565.101752,610.095102 C573.689548,605.618378 582.780369,604.271927 592.374215,606.054738 Z" id="Path" fill="#8F663C" opacity="0.981"></path>
            <path d="M691.363156,601.004281 C688.597526,607.819367 687.75612,614.890006 688.837928,622.216197 C690.239935,624.440418 691.755071,626.460601 693.383338,628.276745 C690.766192,627.515136 688.914695,625.831314 687.827837,623.226288 C687.154106,618.175832 687.154106,613.125376 687.827837,608.07492 C688.268236,605.147676 689.447013,602.791133 691.363156,601.004281 Z" id="Path" fill="#DCE5DF" opacity="0.443"></path>
            <path d="M736.817261,612.115285 C736.817261,613.461737 736.817261,614.809198 736.817261,616.15565 C736.35969,617.123317 735.686969,617.965733 734.797079,618.680878 C729.027438,620.638435 723.808296,623.500023 719.140665,627.266653 C716.98513,625.46162 716.143724,623.105078 716.615437,620.196015 C721.643671,617.681898 726.694127,615.15667 731.766805,612.620331 C733.417294,612.121346 735.101116,611.95367 736.817261,612.115285 Z" id="Path" fill="#8F653C" opacity="0.987"></path>
            <path d="M734.797079,623.226288 C730.646614,625.818183 726.606249,628.679771 722.675984,631.812064 C717.183108,632.754479 713.310418,630.565611 711.059935,625.246471 C708.338749,628.458561 705.13979,629.468652 701.464068,628.276745 C703.648896,627.297966 706.005438,626.45656 708.534707,625.751517 C709.34682,623.962645 710.525597,622.447508 712.070026,621.206106 C713.080117,623.562649 714.090209,625.920202 715.1003,628.276745 C719.112382,632.462563 722.647702,631.957517 725.706258,626.761608 C728.543604,625.003039 731.573878,623.824262 734.797079,623.226288 Z" id="Path" fill="#D1DAD4" opacity="0.22"></path>
        </g>
    </g>
</svg>